<svg id="white_B" data-name="white B" xmlns="http://www.w3.org/2000/svg" xmlns:xlink="http://www.w3.org/1999/xlink" viewBox="0 0 2000 2004.62"><defs><style>.cls-1,.cls-13,.cls-132{fill:#fff;}.cls-1,.cls-11,.cls-5,.cls-6,.cls-7,.cls-8,.cls-9{fill-rule:evenodd;}.cls-100,.cls-101,.cls-102,.cls-103,.cls-104,.cls-105,.cls-106,.cls-107,.cls-108,.cls-109,.cls-110,.cls-111,.cls-112,.cls-113,.cls-114,.cls-115,.cls-116,.cls-117,.cls-118,.cls-119,.cls-120,.cls-121,.cls-122,.cls-123,.cls-124,.cls-125,.cls-126,.cls-127,.cls-128,.cls-129,.cls-130,.cls-131,.cls-16,.cls-17,.cls-18,.cls-19,.cls-2,.cls-20,.cls-21,.cls-22,.cls-23,.cls-24,.cls-25,.cls-26,.cls-27,.cls-28,.cls-29,.cls-3,.cls-30,.cls-31,.cls-32,.cls-33,.cls-34,.cls-35,.cls-36,.cls-37,.cls-38,.cls-39,.cls-40,.cls-41,.cls-42,.cls-43,.cls-44,.cls-45,.cls-46,.cls-47,.cls-48,.cls-49,.cls-50,.cls-51,.cls-52,.cls-53,.cls-54,.cls-55,.cls-56,.cls-57,.cls-58,.cls-59,.cls-60,.cls-61,.cls-62,.cls-63,.cls-64,.cls-65,.cls-66,.cls-67,.cls-68,.cls-69,.cls-70,.cls-71,.cls-72,.cls-73,.cls-74,.cls-75,.cls-76,.cls-77,.cls-78,.cls-79,.cls-80,.cls-81,.cls-82,.cls-83,.cls-84,.cls-85,.cls-86,.cls-87,.cls-88,.cls-89,.cls-90,.cls-91,.cls-92,.cls-93,.cls-94,.cls-95,.cls-96,.cls-97,.cls-98,.cls-99{fill:none;}.cls-2{clip-rule:evenodd;}.cls-4{fill:#1b295e;}.cls-5{fill:url(#linear-gradient);}.cls-6{fill:url(#linear-gradient-2);}.cls-7{fill:url(#linear-gradient-3);}.cls-8{fill:url(#linear-gradient-4);}.cls-9{fill:url(#linear-gradient-5);}.cls-10{mask:url(#mask);}.cls-11{fill:url(#linear-gradient-6);}.cls-12{clip-path:url(#clip-path);}.cls-14{opacity:0.8;}.cls-15{clip-path:url(#clip-path-2);}.cls-100,.cls-101,.cls-102,.cls-103,.cls-104,.cls-105,.cls-106,.cls-107,.cls-108,.cls-109,.cls-110,.cls-111,.cls-112,.cls-113,.cls-114,.cls-115,.cls-116,.cls-117,.cls-118,.cls-119,.cls-120,.cls-121,.cls-122,.cls-123,.cls-124,.cls-125,.cls-126,.cls-127,.cls-128,.cls-129,.cls-130,.cls-131,.cls-16,.cls-17,.cls-18,.cls-19,.cls-20,.cls-21,.cls-22,.cls-23,.cls-24,.cls-25,.cls-26,.cls-27,.cls-28,.cls-29,.cls-30,.cls-31,.cls-32,.cls-33,.cls-34,.cls-35,.cls-36,.cls-37,.cls-38,.cls-39,.cls-40,.cls-41,.cls-42,.cls-43,.cls-44,.cls-45,.cls-46,.cls-47,.cls-48,.cls-49,.cls-50,.cls-51,.cls-52,.cls-53,.cls-54,.cls-55,.cls-56,.cls-57,.cls-58,.cls-59,.cls-60,.cls-61,.cls-62,.cls-63,.cls-64,.cls-65,.cls-66,.cls-67,.cls-68,.cls-69,.cls-70,.cls-71,.cls-72,.cls-73,.cls-74,.cls-75,.cls-76,.cls-77,.cls-78,.cls-79,.cls-80,.cls-81,.cls-82,.cls-83,.cls-84,.cls-85,.cls-86,.cls-87,.cls-88,.cls-89,.cls-90,.cls-91,.cls-92,.cls-93,.cls-94,.cls-95,.cls-96,.cls-97,.cls-98,.cls-99{stroke-miterlimit:10;stroke-width:11px;}.cls-16{stroke:url(#linear-gradient-7);}.cls-17{stroke:url(#linear-gradient-8);}.cls-18{stroke:url(#linear-gradient-9);}.cls-19{stroke:url(#linear-gradient-10);}.cls-20{stroke:url(#linear-gradient-11);}.cls-21{stroke:url(#linear-gradient-12);}.cls-22{stroke:url(#linear-gradient-13);}.cls-23{stroke:url(#linear-gradient-14);}.cls-24{stroke:url(#linear-gradient-15);}.cls-25{stroke:url(#linear-gradient-16);}.cls-26{stroke:url(#linear-gradient-17);}.cls-27{stroke:url(#linear-gradient-18);}.cls-28{stroke:url(#linear-gradient-19);}.cls-29{stroke:url(#linear-gradient-20);}.cls-30{stroke:url(#linear-gradient-21);}.cls-31{stroke:url(#linear-gradient-22);}.cls-32{stroke:url(#linear-gradient-23);}.cls-33{stroke:url(#linear-gradient-24);}.cls-34{stroke:url(#linear-gradient-25);}.cls-35{stroke:url(#linear-gradient-26);}.cls-36{stroke:url(#linear-gradient-27);}.cls-37{stroke:url(#linear-gradient-28);}.cls-38{stroke:url(#linear-gradient-29);}.cls-39{stroke:url(#linear-gradient-30);}.cls-40{stroke:url(#linear-gradient-31);}.cls-41{stroke:url(#linear-gradient-32);}.cls-42{stroke:url(#linear-gradient-33);}.cls-43{stroke:url(#linear-gradient-34);}.cls-44{stroke:url(#linear-gradient-35);}.cls-45{stroke:url(#linear-gradient-36);}.cls-46{stroke:url(#linear-gradient-37);}.cls-47{stroke:url(#linear-gradient-38);}.cls-48{stroke:url(#linear-gradient-39);}.cls-49{stroke:url(#linear-gradient-40);}.cls-50{stroke:url(#linear-gradient-41);}.cls-51{stroke:url(#linear-gradient-42);}.cls-52{stroke:url(#linear-gradient-43);}.cls-53{stroke:url(#linear-gradient-44);}.cls-54{stroke:url(#linear-gradient-45);}.cls-55{stroke:url(#linear-gradient-46);}.cls-56{stroke:url(#linear-gradient-47);}.cls-57{stroke:url(#linear-gradient-48);}.cls-58{stroke:url(#linear-gradient-49);}.cls-59{stroke:url(#linear-gradient-50);}.cls-60{stroke:url(#linear-gradient-51);}.cls-61{stroke:url(#linear-gradient-52);}.cls-62{stroke:url(#linear-gradient-53);}.cls-63{stroke:url(#linear-gradient-54);}.cls-64{stroke:url(#linear-gradient-55);}.cls-65{stroke:url(#linear-gradient-56);}.cls-66{stroke:url(#linear-gradient-57);}.cls-67{stroke:url(#linear-gradient-58);}.cls-68{stroke:url(#linear-gradient-59);}.cls-69{stroke:url(#linear-gradient-60);}.cls-70{stroke:url(#linear-gradient-61);}.cls-71{stroke:url(#linear-gradient-62);}.cls-72{stroke:url(#linear-gradient-63);}.cls-73{stroke:url(#linear-gradient-64);}.cls-74{stroke:url(#linear-gradient-65);}.cls-75{stroke:url(#linear-gradient-66);}.cls-76{stroke:url(#linear-gradient-67);}.cls-77{stroke:url(#linear-gradient-68);}.cls-78{stroke:url(#linear-gradient-69);}.cls-79{stroke:url(#linear-gradient-70);}.cls-80{stroke:url(#linear-gradient-71);}.cls-81{stroke:url(#linear-gradient-72);}.cls-82{stroke:url(#linear-gradient-73);}.cls-83{stroke:url(#linear-gradient-74);}.cls-84{stroke:url(#linear-gradient-75);}.cls-85{stroke:url(#linear-gradient-76);}.cls-86{stroke:url(#linear-gradient-77);}.cls-87{stroke:url(#linear-gradient-78);}.cls-88{stroke:url(#linear-gradient-79);}.cls-89{stroke:url(#linear-gradient-80);}.cls-90{stroke:url(#linear-gradient-81);}.cls-91{stroke:url(#linear-gradient-82);}.cls-92{stroke:url(#linear-gradient-83);}.cls-93{stroke:url(#linear-gradient-84);}.cls-94{stroke:url(#linear-gradient-85);}.cls-95{stroke:url(#linear-gradient-86);}.cls-96{stroke:url(#linear-gradient-87);}.cls-97{stroke:url(#linear-gradient-88);}.cls-98{stroke:url(#linear-gradient-89);}.cls-99{stroke:url(#linear-gradient-90);}.cls-100{stroke:url(#linear-gradient-91);}.cls-101{stroke:url(#linear-gradient-92);}.cls-102{stroke:url(#linear-gradient-93);}.cls-103{stroke:url(#linear-gradient-94);}.cls-104{stroke:url(#linear-gradient-95);}.cls-105{stroke:url(#linear-gradient-96);}.cls-106{stroke:url(#linear-gradient-97);}.cls-107{stroke:url(#linear-gradient-98);}.cls-108{stroke:url(#linear-gradient-99);}.cls-109{stroke:url(#linear-gradient-100);}.cls-110{stroke:url(#linear-gradient-101);}.cls-111{stroke:url(#linear-gradient-102);}.cls-112{stroke:url(#linear-gradient-103);}.cls-113{stroke:url(#linear-gradient-104);}.cls-114{stroke:url(#linear-gradient-105);}.cls-115{stroke:url(#linear-gradient-106);}.cls-116{stroke:url(#linear-gradient-107);}.cls-117{stroke:url(#linear-gradient-108);}.cls-118{stroke:url(#linear-gradient-109);}.cls-119{stroke:url(#linear-gradient-110);}.cls-120{stroke:url(#linear-gradient-111);}.cls-121{stroke:url(#linear-gradient-112);}.cls-122{stroke:url(#linear-gradient-113);}.cls-123{stroke:url(#linear-gradient-114);}.cls-124{stroke:url(#linear-gradient-115);}.cls-125{stroke:url(#linear-gradient-116);}.cls-126{stroke:url(#linear-gradient-117);}.cls-127{stroke:url(#linear-gradient-118);}.cls-128{stroke:url(#linear-gradient-119);}.cls-129{stroke:url(#linear-gradient-120);}.cls-130{stroke:url(#linear-gradient-121);}.cls-131{stroke:url(#linear-gradient-122);}.cls-132{font-size:35.74px;font-family:Nunito-Black, Nunito;font-weight:800;}</style><linearGradient id="linear-gradient" x1="1575.88" y1="1000.86" x2="1857.49" y2="1000.86" gradientUnits="userSpaceOnUse"><stop offset="0" stop-color="#69fabd"/><stop offset="1" stop-color="#00aee9"/></linearGradient><linearGradient id="linear-gradient-2" x1="419.55" y1="284.33" x2="1579.9" y2="284.33" xlink:href="#linear-gradient"/><linearGradient id="linear-gradient-3" x1="142.88" y1="1003.38" x2="424.5" y2="1003.38" xlink:href="#linear-gradient"/><linearGradient id="linear-gradient-4" x1="420.28" y1="1719.9" x2="1580.64" y2="1719.9" xlink:href="#linear-gradient"/><linearGradient id="linear-gradient-5" x1="645.09" y1="1020.85" x2="1403.8" y2="1020.85" xlink:href="#linear-gradient"/><mask id="mask" x="0" y="0" width="2000" height="2004.62" maskUnits="userSpaceOnUse"><path class="cls-1" d="M0,0H2000V2004.62H0V0"/></mask><linearGradient id="linear-gradient-6" x1="0" y1="1002.31" x2="2000" y2="1002.31" xlink:href="#linear-gradient"/><clipPath id="clip-path"><path class="cls-2" d="M1166.39,862.14c0,110.08-171.7,96.69-226.25,96.69V764.9c54.55,0,226.25-17.25,226.25,97.24m44.85,301.07c0,120.36-205.75,106.6-271.28,106.6V1056.25c65.53.18,271.28-18.71,271.28,107m135.46-344.6c-11-114.85-109.83-153.38-234.85-165.12V495.19h-96.66V650.41c-25.44,0-51.43,0-77.24.92V495.19h-96.1V654.45H646V758.11s71.39-1.29,70.29,0a50,50,0,0,1,54.92,42.56v436.12a34.26,34.26,0,0,1-36.27,32.12h-.34c1.28,1.1-70.29,0-70.29,0l-19.22,115.78H840.2v161.82h96.65V1387.05h77.25v158.7h96.83v-160c163.28-9.91,277.14-50.28,291.41-203.47C1413.88,1059,1356,1004,1263.59,981.76c56.2-28.62,91.53-79.08,83.11-163.11"/></clipPath><clipPath id="clip-path-2"><rect class="cls-3" x="562.73" y="443.82" width="929.01" height="1203.04"/></clipPath><linearGradient id="linear-gradient-7" x1="-41.86" y1="913.7" x2="147.23" y2="724.6" gradientUnits="userSpaceOnUse"><stop offset="0" stop-color="#00aee9"/><stop offset="1" stop-color="#69fabd"/></linearGradient><linearGradient id="linear-gradient-8" x1="36.6" y1="599.83" x2="225.69" y2="410.74" xlink:href="#linear-gradient-7"/><linearGradient id="linear-gradient-9" x1="134.7" y1="501.74" x2="323.79" y2="312.64" xlink:href="#linear-gradient-7"/><linearGradient id="linear-gradient-10" x1="56.23" y1="815.62" x2="245.32" y2="626.52" xlink:href="#linear-gradient-7"/><linearGradient id="linear-gradient-11" x1="154.31" y1="717.54" x2="343.4" y2="528.45" xlink:href="#linear-gradient-7"/><linearGradient id="linear-gradient-12" x1="252.4" y1="619.44" x2="441.49" y2="430.34" xlink:href="#linear-gradient-7"/><linearGradient id="linear-gradient-13" x1="350.48" y1="521.36" x2="539.57" y2="332.27" xlink:href="#linear-gradient-7"/><linearGradient id="linear-gradient-14" x1="75.84" y1="1031.41" x2="264.93" y2="842.31" xlink:href="#linear-gradient-7"/><linearGradient id="linear-gradient-15" x1="-2.63" y1="1345.27" x2="186.46" y2="1156.18" xlink:href="#linear-gradient-7"/><linearGradient id="linear-gradient-16" x1="95.46" y1="1247.2" x2="284.55" y2="1058.1" xlink:href="#linear-gradient-7"/><linearGradient id="linear-gradient-17" x1="193.54" y1="1149.1" x2="382.63" y2="960.01" xlink:href="#linear-gradient-7"/><linearGradient id="linear-gradient-18" x1="16.99" y1="1561.06" x2="206.08" y2="1371.97" xlink:href="#linear-gradient-7"/><linearGradient id="linear-gradient-19" x1="115.08" y1="1462.97" x2="304.17" y2="1273.88" xlink:href="#linear-gradient-7"/><linearGradient id="linear-gradient-20" x1="213.17" y1="1364.89" x2="402.26" y2="1175.8" xlink:href="#linear-gradient-7"/><linearGradient id="linear-gradient-21" x1="311.25" y1="1266.8" x2="500.34" y2="1077.71" xlink:href="#linear-gradient-7"/><linearGradient id="linear-gradient-22" x1="134.7" y1="1678.76" x2="323.79" y2="1489.67" xlink:href="#linear-gradient-7"/><linearGradient id="linear-gradient-23" x1="232.78" y1="1580.67" x2="421.87" y2="1391.58" xlink:href="#linear-gradient-7"/><linearGradient id="linear-gradient-24" x1="330.86" y1="1482.59" x2="519.95" y2="1293.5" xlink:href="#linear-gradient-7"/><linearGradient id="linear-gradient-25" x1="428.95" y1="1384.51" x2="618.04" y2="1195.42" xlink:href="#linear-gradient-7"/><linearGradient id="linear-gradient-26" x1="173.93" y1="933.33" x2="363.02" y2="744.24" xlink:href="#linear-gradient-7"/><linearGradient id="linear-gradient-27" x1="272.02" y1="835.24" x2="461.11" y2="646.14" xlink:href="#linear-gradient-7"/><linearGradient id="linear-gradient-28" x1="370.1" y1="737.15" x2="559.19" y2="548.05" xlink:href="#linear-gradient-7"/><linearGradient id="linear-gradient-29" x1="468.19" y1="639.06" x2="657.28" y2="449.96" xlink:href="#linear-gradient-7"/><linearGradient id="linear-gradient-30" x1="291.64" y1="1051.01" x2="480.73" y2="861.92" xlink:href="#linear-gradient-7"/><linearGradient id="linear-gradient-31" x1="389.71" y1="952.94" x2="578.8" y2="763.84" xlink:href="#linear-gradient-7"/><linearGradient id="linear-gradient-32" x1="487.81" y1="854.85" x2="676.9" y2="665.75" xlink:href="#linear-gradient-7"/><linearGradient id="linear-gradient-33" x1="585.89" y1="756.76" x2="774.98" y2="567.66" xlink:href="#linear-gradient-7"/><linearGradient id="linear-gradient-34" x1="409.34" y1="1168.73" x2="598.43" y2="979.63" xlink:href="#linear-gradient-7"/><linearGradient id="linear-gradient-35" x1="507.42" y1="1070.65" x2="696.51" y2="881.55" xlink:href="#linear-gradient-7"/><linearGradient id="linear-gradient-36" x1="605.51" y1="972.54" x2="794.6" y2="783.45" xlink:href="#linear-gradient-7"/><linearGradient id="linear-gradient-37" x1="703.58" y1="874.47" x2="892.68" y2="685.37" xlink:href="#linear-gradient-7"/><linearGradient id="linear-gradient-38" x1="527.04" y1="1286.44" x2="716.13" y2="1097.34" xlink:href="#linear-gradient-7"/><linearGradient id="linear-gradient-39" x1="625.13" y1="1188.35" x2="814.22" y2="999.25" xlink:href="#linear-gradient-7"/><linearGradient id="linear-gradient-40" x1="723.21" y1="1090.26" x2="912.3" y2="901.16" xlink:href="#linear-gradient-7"/><linearGradient id="linear-gradient-41" x1="821.3" y1="992.17" x2="1010.39" y2="803.07" xlink:href="#linear-gradient-7"/><linearGradient id="linear-gradient-42" x1="252.4" y1="1796.47" x2="441.49" y2="1607.38" xlink:href="#linear-gradient-7"/><linearGradient id="linear-gradient-43" x1="350.48" y1="1698.38" x2="539.57" y2="1509.29" xlink:href="#linear-gradient-7"/><linearGradient id="linear-gradient-44" x1="448.57" y1="1600.3" x2="637.66" y2="1411.21" xlink:href="#linear-gradient-7"/><linearGradient id="linear-gradient-45" x1="546.64" y1="1502.21" x2="735.74" y2="1313.12" xlink:href="#linear-gradient-7"/><linearGradient id="linear-gradient-46" x1="566.28" y1="1718" x2="755.37" y2="1528.91" xlink:href="#linear-gradient-7"/><linearGradient id="linear-gradient-47" x1="664.36" y1="1619.91" x2="853.45" y2="1430.82" xlink:href="#linear-gradient-7"/><linearGradient id="linear-gradient-48" x1="644.75" y1="1404.12" x2="833.84" y2="1215.03" xlink:href="#linear-gradient-7"/><linearGradient id="linear-gradient-49" x1="742.81" y1="1306.04" x2="931.91" y2="1116.95" xlink:href="#linear-gradient-7"/><linearGradient id="linear-gradient-50" x1="840.92" y1="1207.95" x2="1030.01" y2="1018.86" xlink:href="#linear-gradient-7"/><linearGradient id="linear-gradient-51" x1="938.99" y1="1109.86" x2="1128.09" y2="920.77" xlink:href="#linear-gradient-7"/><linearGradient id="linear-gradient-52" x1="762.45" y1="1521.83" x2="951.54" y2="1332.74" xlink:href="#linear-gradient-7"/><linearGradient id="linear-gradient-53" x1="860.52" y1="1423.76" x2="1049.62" y2="1234.66" xlink:href="#linear-gradient-7"/><linearGradient id="linear-gradient-54" x1="958.61" y1="1325.65" x2="1147.71" y2="1136.56" xlink:href="#linear-gradient-7"/><linearGradient id="linear-gradient-55" x1="1056.69" y1="1227.57" x2="1245.79" y2="1038.48" xlink:href="#linear-gradient-7"/><linearGradient id="linear-gradient-56" x1="880.14" y1="1639.54" x2="1069.24" y2="1450.45" xlink:href="#linear-gradient-7"/><linearGradient id="linear-gradient-57" x1="978.24" y1="1541.45" x2="1167.33" y2="1352.36" xlink:href="#linear-gradient-7"/><linearGradient id="linear-gradient-58" x1="1076.31" y1="1443.36" x2="1265.41" y2="1254.27" xlink:href="#linear-gradient-7"/><linearGradient id="linear-gradient-59" x1="1174.4" y1="1345.27" x2="1363.5" y2="1156.18" xlink:href="#linear-gradient-7"/><linearGradient id="linear-gradient-60" x1="997.86" y1="1757.23" x2="1186.95" y2="1568.14" xlink:href="#linear-gradient-7"/><linearGradient id="linear-gradient-61" x1="1095.92" y1="1659.15" x2="1285.01" y2="1470.06" xlink:href="#linear-gradient-7"/><linearGradient id="linear-gradient-62" x1="1194.02" y1="1561.06" x2="1383.12" y2="1371.97" xlink:href="#linear-gradient-7"/><linearGradient id="linear-gradient-63" x1="1292.1" y1="1462.97" x2="1481.2" y2="1273.88" xlink:href="#linear-gradient-7"/><linearGradient id="linear-gradient-64" x1="1311.72" y1="1678.76" x2="1500.82" y2="1489.67" xlink:href="#linear-gradient-7"/><linearGradient id="linear-gradient-65" x1="1409.8" y1="1580.68" x2="1598.89" y2="1391.59" xlink:href="#linear-gradient-7"/><linearGradient id="linear-gradient-66" x1="1429.42" y1="1796.47" x2="1618.51" y2="1607.38" xlink:href="#linear-gradient-7"/><linearGradient id="linear-gradient-67" x1="1527.51" y1="1698.38" x2="1716.6" y2="1509.29" xlink:href="#linear-gradient-7"/><linearGradient id="linear-gradient-68" x1="448.57" y1="423.27" x2="637.66" y2="234.18" xlink:href="#linear-gradient-7"/><linearGradient id="linear-gradient-69" x1="566.28" y1="540.98" x2="755.37" y2="351.89" xlink:href="#linear-gradient-7"/><linearGradient id="linear-gradient-70" x1="683.96" y1="658.68" x2="873.06" y2="469.58" xlink:href="#linear-gradient-7"/><linearGradient id="linear-gradient-71" x1="782.05" y1="560.6" x2="971.15" y2="371.51" xlink:href="#linear-gradient-7"/><linearGradient id="linear-gradient-72" x1="880.14" y1="462.51" x2="1069.24" y2="273.42" xlink:href="#linear-gradient-7"/><linearGradient id="linear-gradient-73" x1="801.67" y1="776.38" x2="990.77" y2="587.28" xlink:href="#linear-gradient-7"/><linearGradient id="linear-gradient-74" x1="899.75" y1="678.3" x2="1088.85" y2="489.21" xlink:href="#linear-gradient-7"/><linearGradient id="linear-gradient-75" x1="997.86" y1="580.21" x2="1186.95" y2="391.11" xlink:href="#linear-gradient-7"/><linearGradient id="linear-gradient-76" x1="919.39" y1="894.09" x2="1108.48" y2="704.99" xlink:href="#linear-gradient-7"/><linearGradient id="linear-gradient-77" x1="1017.46" y1="796" x2="1206.56" y2="606.9" xlink:href="#linear-gradient-7"/><linearGradient id="linear-gradient-78" x1="1115.55" y1="697.91" x2="1304.65" y2="508.81" xlink:href="#linear-gradient-7"/><linearGradient id="linear-gradient-79" x1="1213.63" y1="599.83" x2="1402.73" y2="410.74" xlink:href="#linear-gradient-7"/><linearGradient id="linear-gradient-80" x1="1311.72" y1="501.74" x2="1500.82" y2="312.64" xlink:href="#linear-gradient-7"/><linearGradient id="linear-gradient-81" x1="1037.07" y1="1011.79" x2="1226.17" y2="822.69" xlink:href="#linear-gradient-7"/><linearGradient id="linear-gradient-82" x1="1135.16" y1="913.71" x2="1324.26" y2="724.61" xlink:href="#linear-gradient-7"/><linearGradient id="linear-gradient-83" x1="1233.25" y1="815.62" x2="1422.35" y2="626.52" xlink:href="#linear-gradient-7"/><linearGradient id="linear-gradient-84" x1="1331.33" y1="717.53" x2="1520.42" y2="528.43" xlink:href="#linear-gradient-7"/><linearGradient id="linear-gradient-85" x1="1154.78" y1="1129.48" x2="1343.88" y2="940.39" xlink:href="#linear-gradient-7"/><linearGradient id="linear-gradient-86" x1="1252.86" y1="1031.41" x2="1441.95" y2="842.31" xlink:href="#linear-gradient-7"/><linearGradient id="linear-gradient-87" x1="1350.96" y1="933.32" x2="1540.06" y2="744.22" xlink:href="#linear-gradient-7"/><linearGradient id="linear-gradient-88" x1="1449.04" y1="835.23" x2="1638.13" y2="646.13" xlink:href="#linear-gradient-7"/><linearGradient id="linear-gradient-89" x1="1272.49" y1="1247.2" x2="1461.59" y2="1058.1" xlink:href="#linear-gradient-7"/><linearGradient id="linear-gradient-90" x1="1370.57" y1="1149.1" x2="1559.67" y2="960.01" xlink:href="#linear-gradient-7"/><linearGradient id="linear-gradient-91" x1="1468.66" y1="1051.01" x2="1657.76" y2="861.92" xlink:href="#linear-gradient-7"/><linearGradient id="linear-gradient-92" x1="1566.74" y1="952.94" x2="1755.83" y2="763.84" xlink:href="#linear-gradient-7"/><linearGradient id="linear-gradient-93" x1="1390.18" y1="1364.89" x2="1579.27" y2="1175.8" xlink:href="#linear-gradient-7"/><linearGradient id="linear-gradient-94" x1="1488.27" y1="1266.82" x2="1677.36" y2="1077.72" xlink:href="#linear-gradient-7"/><linearGradient id="linear-gradient-95" x1="1586.36" y1="1168.73" x2="1775.45" y2="979.63" xlink:href="#linear-gradient-7"/><linearGradient id="linear-gradient-96" x1="1684.44" y1="1070.64" x2="1873.53" y2="881.54" xlink:href="#linear-gradient-7"/><linearGradient id="linear-gradient-97" x1="1429.42" y1="619.44" x2="1618.51" y2="430.34" xlink:href="#linear-gradient-7"/><linearGradient id="linear-gradient-98" x1="1527.5" y1="521.36" x2="1716.59" y2="332.27" xlink:href="#linear-gradient-7"/><linearGradient id="linear-gradient-99" x1="1625.6" y1="423.27" x2="1814.7" y2="234.18" xlink:href="#linear-gradient-7"/><linearGradient id="linear-gradient-100" x1="1547.13" y1="737.15" x2="1736.23" y2="548.05" xlink:href="#linear-gradient-7"/><linearGradient id="linear-gradient-101" x1="1645.21" y1="639.06" x2="1834.3" y2="449.96" xlink:href="#linear-gradient-7"/><linearGradient id="linear-gradient-102" x1="1743.29" y1="540.98" x2="1932.38" y2="351.89" xlink:href="#linear-gradient-7"/><linearGradient id="linear-gradient-103" x1="1664.83" y1="854.85" x2="1853.92" y2="665.75" xlink:href="#linear-gradient-7"/><linearGradient id="linear-gradient-104" x1="1762.92" y1="756.77" x2="1952.01" y2="567.67" xlink:href="#linear-gradient-7"/><linearGradient id="linear-gradient-105" x1="1861" y1="658.68" x2="2050.09" y2="469.58" xlink:href="#linear-gradient-7"/><linearGradient id="linear-gradient-106" x1="1959.09" y1="560.59" x2="2148.18" y2="371.49" xlink:href="#linear-gradient-7"/><linearGradient id="linear-gradient-107" x1="1782.53" y1="972.54" x2="1971.62" y2="783.45" xlink:href="#linear-gradient-7"/><linearGradient id="linear-gradient-108" x1="1880.61" y1="874.47" x2="2069.7" y2="685.37" xlink:href="#linear-gradient-7"/><linearGradient id="linear-gradient-109" x1="1507.89" y1="1482.59" x2="1696.98" y2="1293.5" xlink:href="#linear-gradient-7"/><linearGradient id="linear-gradient-110" x1="1605.97" y1="1384.51" x2="1795.06" y2="1195.42" xlink:href="#linear-gradient-7"/><linearGradient id="linear-gradient-111" x1="1704.07" y1="1286.42" x2="1893.16" y2="1097.33" xlink:href="#linear-gradient-7"/><linearGradient id="linear-gradient-112" x1="1802.15" y1="1188.33" x2="1991.24" y2="999.24" xlink:href="#linear-gradient-7"/><linearGradient id="linear-gradient-113" x1="1625.6" y1="1600.3" x2="1814.7" y2="1411.21" xlink:href="#linear-gradient-7"/><linearGradient id="linear-gradient-114" x1="1723.68" y1="1502.21" x2="1912.77" y2="1313.12" xlink:href="#linear-gradient-7"/><linearGradient id="linear-gradient-115" x1="1821.77" y1="1404.12" x2="2010.86" y2="1215.03" xlink:href="#linear-gradient-7"/><linearGradient id="linear-gradient-116" x1="1919.85" y1="1306.04" x2="2108.94" y2="1116.95" xlink:href="#linear-gradient-7"/><linearGradient id="linear-gradient-117" x1="1743.29" y1="1718" x2="1932.38" y2="1528.91" xlink:href="#linear-gradient-7"/><linearGradient id="linear-gradient-118" x1="1841.38" y1="1619.92" x2="2030.47" y2="1430.83" xlink:href="#linear-gradient-7"/><linearGradient id="linear-gradient-119" x1="1939.47" y1="1521.83" x2="2128.56" y2="1332.74" xlink:href="#linear-gradient-7"/><linearGradient id="linear-gradient-120" x1="2037.55" y1="1423.74" x2="2226.64" y2="1234.65" xlink:href="#linear-gradient-7"/><linearGradient id="linear-gradient-121" x1="1900.24" y1="1090.26" x2="2089.33" y2="901.16" xlink:href="#linear-gradient-7"/><linearGradient id="linear-gradient-122" x1="1998.32" y1="992.17" x2="2187.41" y2="803.07" xlink:href="#linear-gradient-7"/></defs><title>white B</title><g id="Layer_2_copy_13" data-name="Layer 2 copy 13"><rect class="cls-4" width="2000" height="2004.62"/></g><g id="Layer_1_copy_13" data-name="Layer 1 copy 13"><path class="cls-5" d="M1630.79,420.7l-54.91,55c271.59,297.7,271.59,754,0,1051.66l54.91,55c302.27-328.47,302.27-834.55,0-1163"/><path class="cls-6" d="M475.75,425.48c297-272.24,752.22-272.24,1049.24,0l54.91-55.05c-327.73-303-832.62-303-1160.35,0"/><path class="cls-7" d="M424.5,1528c-271.26-297.63-271.26-753.49,0-1051.12l-54.92-55c-302.27,328.49-302.27,834.54,0,1163"/><path class="cls-8" d="M1524.44,1578.77c-297,272.24-752.23,272.24-1049.24,0l-54.92,55c327.74,303,832.62,303,1160.36,0"/><path class="cls-9" d="M1166.39,862.14c0,110.08-171.7,96.69-226.25,96.69V764.9c54.55,0,226.25-17.25,226.25,97.24m44.85,301.07c0,120.36-205.75,106.6-271.28,106.6V1056.25c65.53.18,271.28-18.71,271.28,107m135.46-344.6c-11-114.85-109.83-153.38-234.85-165.12V495.19h-96.66V650.41c-25.44,0-51.43,0-77.24.92V495.19h-96.1V654.45H646V758.11s71.39-1.29,70.29,0a50,50,0,0,1,54.92,42.56v436.12a34.26,34.26,0,0,1-36.27,32.12h-.34c1.28,1.1-70.29,0-70.29,0l-19.22,115.78H840.2v161.82h96.65V1387.05h77.25v158.7h96.83v-160c163.28-9.91,277.14-50.28,291.41-203.47C1413.88,1059,1356,1004,1263.59,981.76c56.2-28.62,91.53-79.08,83.11-163.11"/><g class="cls-10"><path class="cls-11" d="M999.82,78.16C490.9,78.47,78.58,492.22,78.89,1002.31s413.11,923.36,922,923.05c508.56-.3,920.72-413.51,920.92-923.23-.61-510-413.18-923.22-922-923.42Zm0,1926.46C447.54,2004.53-.11,1555.7,0,1002.13S447.9-.11,1000.18,0,1999.91,448.7,2000,1002.13C1999.4,1555.53,1552,2004,999.82,2004.62Z"/></g></g><g class="cls-12"><rect class="cls-13" x="162.01" y="487.2" width="1897.41" height="1067.29"/><g class="cls-14"><g class="cls-15"><path class="cls-16" d="M209.62,819.15h0A58.85,58.85,0,0,1,150.77,878H-45.4a58.85,58.85,0,0,1-58.85-58.85h0A58.85,58.85,0,0,1-45.4,760.3H150.77A58.85,58.85,0,0,1,209.62,819.15Z"/><path class="cls-17" d="M288.08,505.28h0a58.85,58.85,0,0,1-58.85,58.85H33.06A58.85,58.85,0,0,1-25.8,505.28h0a58.85,58.85,0,0,1,58.86-58.85H229.23A58.85,58.85,0,0,1,288.08,505.28Z"/><path class="cls-18" d="M229.24,564.13h0a58.85,58.85,0,0,1-58.85-58.85V309.11a58.85,58.85,0,0,1,58.85-58.86h0a58.85,58.85,0,0,1,58.85,58.86V505.28A58.85,58.85,0,0,1,229.24,564.13Z"/><path class="cls-19" d="M150.78,878h0a58.85,58.85,0,0,1-58.85-58.85V623a58.85,58.85,0,0,1,58.85-58.86h0A58.85,58.85,0,0,1,209.62,623V819.16A58.84,58.84,0,0,1,150.78,878Z"/><path class="cls-20" d="M405.79,623h0a58.85,58.85,0,0,1-58.85,58.85H150.77A58.85,58.85,0,0,1,91.91,623h0a58.85,58.85,0,0,1,58.86-58.85H346.94A58.85,58.85,0,0,1,405.79,623Z"/><path class="cls-21" d="M346.94,681.83h0A58.85,58.85,0,0,1,288.09,623V426.81A58.85,58.85,0,0,1,346.94,368h0a58.85,58.85,0,0,1,58.85,58.86V623A58.85,58.85,0,0,1,346.94,681.83Z"/><path class="cls-22" d="M602,426.81h0a58.85,58.85,0,0,1-58.85,58.85H346.94a58.85,58.85,0,0,1-58.86-58.85h0A58.85,58.85,0,0,1,346.94,368H543.11A58.85,58.85,0,0,1,602,426.81Z"/><path class="cls-23" d="M327.32,936.86h0a58.85,58.85,0,0,1-58.85,58.85H72.3a58.85,58.85,0,0,1-58.86-58.85h0A58.85,58.85,0,0,1,72.3,878H268.47A58.85,58.85,0,0,1,327.32,936.86Z"/><path class="cls-24" d="M248.85,1250.73h0A58.85,58.85,0,0,1,190,1309.58H-6.17A58.85,58.85,0,0,1-65,1250.73h0a58.85,58.85,0,0,1,58.86-58.85H190A58.85,58.85,0,0,1,248.85,1250.73Z"/><path class="cls-25" d="M190,1309.59h0a58.85,58.85,0,0,1-58.85-58.86V1054.56A58.85,58.85,0,0,1,190,995.71h0a58.85,58.85,0,0,1,58.85,58.85v196.17A58.85,58.85,0,0,1,190,1309.59Z"/><path class="cls-26" d="M445,1054.56h0a58.85,58.85,0,0,1-58.85,58.85H190a58.85,58.85,0,0,1-58.86-58.85h0A58.85,58.85,0,0,1,190,995.71H386.17A58.85,58.85,0,0,1,445,1054.56Z"/><path class="cls-27" d="M111.53,1623.46h0a58.85,58.85,0,0,1-58.85-58.86V1368.43a58.85,58.85,0,0,1,58.85-58.85h0a58.85,58.85,0,0,1,58.85,58.85V1564.6A58.85,58.85,0,0,1,111.53,1623.46Z"/><rect class="cls-28" x="52.68" y="1309.58" width="313.88" height="117.7" rx="58.85"/><path class="cls-29" d="M307.71,1427.29h0a58.85,58.85,0,0,1-58.84-58.86V1172.26a58.84,58.84,0,0,1,58.84-58.85h0a58.85,58.85,0,0,1,58.85,58.85v196.17A58.85,58.85,0,0,1,307.71,1427.29Z"/><path class="cls-30" d="M562.73,1172.26h0a58.85,58.85,0,0,1-58.85,58.85H307.71a58.85,58.85,0,0,1-58.86-58.85h0a58.85,58.85,0,0,1,58.86-58.85H503.88A58.85,58.85,0,0,1,562.73,1172.26Z"/><path class="cls-31" d="M229.24,1741.16h0a58.85,58.85,0,0,1-58.85-58.86V1486.13a58.85,58.85,0,0,1,58.85-58.85h0a58.85,58.85,0,0,1,58.85,58.85V1682.3A58.85,58.85,0,0,1,229.24,1741.16Z"/><path class="cls-32" d="M484.26,1486.13h0A58.84,58.84,0,0,1,425.41,1545H229.24a58.85,58.85,0,0,1-58.86-58.84h0a58.85,58.85,0,0,1,58.86-58.85H425.41A58.85,58.85,0,0,1,484.26,1486.13Z"/><path class="cls-33" d="M425.4,1545h0a58.85,58.85,0,0,1-58.85-58.86V1290a58.85,58.85,0,0,1,58.85-58.85h0A58.85,58.85,0,0,1,484.25,1290v196.17A58.85,58.85,0,0,1,425.4,1545Z"/><path class="cls-34" d="M680.43,1290h0a58.85,58.85,0,0,1-58.85,58.85H425.41A58.85,58.85,0,0,1,366.55,1290h0a58.85,58.85,0,0,1,58.86-58.85H621.58A58.85,58.85,0,0,1,680.43,1290Z"/><path class="cls-35" d="M268.47,995.72h0a58.85,58.85,0,0,1-58.85-58.85V740.7a58.85,58.85,0,0,1,58.85-58.86h0a58.85,58.85,0,0,1,58.85,58.86V936.87A58.85,58.85,0,0,1,268.47,995.72Z"/><path class="cls-36" d="M523.5,740.69h0a58.85,58.85,0,0,1-58.85,58.85H268.48a58.86,58.86,0,0,1-58.86-58.85h0a58.86,58.86,0,0,1,58.86-58.85H464.65A58.85,58.85,0,0,1,523.5,740.69Z"/><path class="cls-37" d="M464.64,799.54h0a58.85,58.85,0,0,1-58.85-58.85V544.52a58.85,58.85,0,0,1,58.85-58.86h0a58.85,58.85,0,0,1,58.85,58.86V740.69A58.85,58.85,0,0,1,464.64,799.54Z"/><path class="cls-38" d="M719.67,544.51h0a58.85,58.85,0,0,1-58.85,58.85H464.65a58.85,58.85,0,0,1-58.86-58.85h0a58.85,58.85,0,0,1,58.86-58.85H660.82A58.85,58.85,0,0,1,719.67,544.51Z"/><path class="cls-39" d="M386.18,1113.41h0a58.85,58.85,0,0,1-58.84-58.86V858.38a58.84,58.84,0,0,1,58.84-58.85h0A58.85,58.85,0,0,1,445,858.38v196.17A58.85,58.85,0,0,1,386.18,1113.41Z"/><path class="cls-40" d="M641.19,858.39h0a58.85,58.85,0,0,1-58.85,58.85H386.17a58.85,58.85,0,0,1-58.86-58.85h0a58.85,58.85,0,0,1,58.86-58.85H582.34A58.85,58.85,0,0,1,641.19,858.39Z"/><path class="cls-41" d="M582.35,917.24h0a58.85,58.85,0,0,1-58.85-58.86V662.22a58.85,58.85,0,0,1,58.85-58.86h0a58.85,58.85,0,0,1,58.85,58.86V858.38A58.85,58.85,0,0,1,582.35,917.24Z"/><path class="cls-42" d="M837.37,662.21h0a58.85,58.85,0,0,1-58.85,58.85H582.35a58.85,58.85,0,0,1-58.86-58.85h0a58.85,58.85,0,0,1,58.86-58.85H778.52A58.85,58.85,0,0,1,837.37,662.21Z"/><path class="cls-43" d="M503.88,1231.12h0A58.85,58.85,0,0,1,445,1172.26V976.09a58.85,58.85,0,0,1,58.85-58.85h0a58.85,58.85,0,0,1,58.85,58.85v196.17A58.85,58.85,0,0,1,503.88,1231.12Z"/><path class="cls-44" d="M758.9,976.1h0A58.85,58.85,0,0,1,700.05,1035H503.88A58.85,58.85,0,0,1,445,976.1h0a58.85,58.85,0,0,1,58.86-58.85H700.05A58.85,58.85,0,0,1,758.9,976.1Z"/><path class="cls-45" d="M700.05,1034.94h0a58.85,58.85,0,0,1-58.85-58.86V779.91a58.85,58.85,0,0,1,58.85-58.85h0a58.85,58.85,0,0,1,58.85,58.85V976.08A58.85,58.85,0,0,1,700.05,1034.94Z"/><path class="cls-46" d="M955.07,779.92h0a58.85,58.85,0,0,1-58.85,58.85H700.05a58.85,58.85,0,0,1-58.86-58.85h0a58.85,58.85,0,0,1,58.86-58.85H896.22A58.85,58.85,0,0,1,955.07,779.92Z"/><path class="cls-47" d="M621.58,1348.83h0A58.85,58.85,0,0,1,562.73,1290V1093.81A58.85,58.85,0,0,1,621.58,1035h0a58.85,58.85,0,0,1,58.85,58.86V1290A58.85,58.85,0,0,1,621.58,1348.83Z"/><path class="cls-48" d="M876.61,1093.8h0a58.85,58.85,0,0,1-58.85,58.85H621.59a58.85,58.85,0,0,1-58.86-58.85h0A58.85,58.85,0,0,1,621.59,1035H817.76A58.85,58.85,0,0,1,876.61,1093.8Z"/><path class="cls-49" d="M817.75,1152.65h0a58.85,58.85,0,0,1-58.85-58.86V897.62a58.85,58.85,0,0,1,58.85-58.85h0a58.85,58.85,0,0,1,58.85,58.85v196.17A58.85,58.85,0,0,1,817.75,1152.65Z"/><path class="cls-50" d="M1072.78,897.62h0a58.85,58.85,0,0,1-58.85,58.85H817.76a58.85,58.85,0,0,1-58.86-58.85h0a58.85,58.85,0,0,1,58.86-58.85h196.17A58.85,58.85,0,0,1,1072.78,897.62Z"/><path class="cls-51" d="M346.94,1858.87h0A58.85,58.85,0,0,1,288.09,1800V1603.84A58.85,58.85,0,0,1,346.94,1545h0a58.85,58.85,0,0,1,58.85,58.85V1800A58.85,58.85,0,0,1,346.94,1858.87Z"/><path class="cls-52" d="M602,1603.84h0a58.85,58.85,0,0,1-58.85,58.85H346.94a58.85,58.85,0,0,1-58.86-58.85h0A58.85,58.85,0,0,1,346.94,1545H543.11A58.85,58.85,0,0,1,602,1603.84Z"/><path class="cls-53" d="M543.11,1662.7h0a58.85,58.85,0,0,1-58.85-58.86V1407.67a58.85,58.85,0,0,1,58.85-58.85h0A58.85,58.85,0,0,1,602,1407.67v196.17A58.85,58.85,0,0,1,543.11,1662.7Z"/><path class="cls-54" d="M798.13,1407.67h0a58.85,58.85,0,0,1-58.85,58.85H543.11a58.85,58.85,0,0,1-58.86-58.85h0a58.85,58.85,0,0,1,58.86-58.85H739.28A58.85,58.85,0,0,1,798.13,1407.67Z"/><path class="cls-55" d="M660.82,1780.4h0A58.85,58.85,0,0,1,602,1721.54V1525.37a58.85,58.85,0,0,1,58.85-58.85h0a58.85,58.85,0,0,1,58.85,58.85v196.17A58.85,58.85,0,0,1,660.82,1780.4Z"/><path class="cls-56" d="M915.84,1525.37h0A58.85,58.85,0,0,1,857,1584.22H660.82A58.85,58.85,0,0,1,602,1525.37h0a58.85,58.85,0,0,1,58.86-58.85H857A58.85,58.85,0,0,1,915.84,1525.37Z"/><path class="cls-57" d="M739.29,1466.52h0a58.85,58.85,0,0,1-58.85-58.86V1211.49a58.85,58.85,0,0,1,58.85-58.85h0a58.85,58.85,0,0,1,58.85,58.85v196.17A58.85,58.85,0,0,1,739.29,1466.52Z"/><path class="cls-58" d="M994.3,1211.5h0a58.85,58.85,0,0,1-58.86,58.85H739.28a58.85,58.85,0,0,1-58.86-58.85h0a58.85,58.85,0,0,1,58.86-58.85H935.44A58.85,58.85,0,0,1,994.3,1211.5Z"/><path class="cls-59" d="M935.46,1270.35h0a58.85,58.85,0,0,1-58.85-58.86V1015.32a58.85,58.85,0,0,1,58.85-58.85h0a58.85,58.85,0,0,1,58.85,58.85v196.17A58.85,58.85,0,0,1,935.46,1270.35Z"/><path class="cls-60" d="M1190.48,1015.32h0a58.85,58.85,0,0,1-58.86,58.85H935.46a58.85,58.85,0,0,1-58.86-58.85h0a58.85,58.85,0,0,1,58.86-58.85h196.16A58.85,58.85,0,0,1,1190.48,1015.32Z"/><path class="cls-61" d="M857,1584.23h0a58.85,58.85,0,0,1-58.85-58.86V1329.2A58.85,58.85,0,0,1,857,1270.35h0a58.85,58.85,0,0,1,58.85,58.85v196.17A58.85,58.85,0,0,1,857,1584.23Z"/><path class="cls-62" d="M1112,1329.21h0a58.85,58.85,0,0,1-58.86,58.85H857a58.85,58.85,0,0,1-58.86-58.85h0A58.85,58.85,0,0,1,857,1270.36h196.16A58.85,58.85,0,0,1,1112,1329.21Z"/><path class="cls-63" d="M1053.16,1388.05h0a58.85,58.85,0,0,1-58.85-58.86V1133a58.85,58.85,0,0,1,58.85-58.85h0A58.85,58.85,0,0,1,1112,1133v196.17A58.85,58.85,0,0,1,1053.16,1388.05Z"/><path class="cls-64" d="M1308.18,1133h0a58.85,58.85,0,0,1-58.86,58.85H1053.15A58.85,58.85,0,0,1,994.3,1133h0a58.85,58.85,0,0,1,58.85-58.85h196.17A58.85,58.85,0,0,1,1308.18,1133Z"/><path class="cls-65" d="M974.69,1701.94h0a58.85,58.85,0,0,1-58.85-58.86V1446.91a58.85,58.85,0,0,1,58.85-58.85h0a58.85,58.85,0,0,1,58.85,58.85v196.17A58.85,58.85,0,0,1,974.69,1701.94Z"/><path class="cls-66" d="M1229.72,1446.91h0a58.85,58.85,0,0,1-58.85,58.85H974.7a58.85,58.85,0,0,1-58.86-58.85h0a58.85,58.85,0,0,1,58.86-58.85h196.17A58.85,58.85,0,0,1,1229.72,1446.91Z"/><path class="cls-67" d="M1170.86,1505.76h0A58.85,58.85,0,0,1,1112,1446.9V1250.73a58.85,58.85,0,0,1,58.85-58.85h0a58.85,58.85,0,0,1,58.85,58.85V1446.9A58.85,58.85,0,0,1,1170.86,1505.76Z"/><path class="cls-68" d="M1425.89,1250.73h0a58.85,58.85,0,0,1-58.86,58.85H1170.87a58.85,58.85,0,0,1-58.86-58.85h0a58.85,58.85,0,0,1,58.86-58.85H1367A58.85,58.85,0,0,1,1425.89,1250.73Z"/><path class="cls-69" d="M1092.4,1819.63h0a58.86,58.86,0,0,1-58.85-58.86V1564.6a58.85,58.85,0,0,1,58.85-58.85h0a58.85,58.85,0,0,1,58.85,58.85v196.17A58.86,58.86,0,0,1,1092.4,1819.63Z"/><path class="cls-70" d="M1347.41,1564.61h0a58.85,58.85,0,0,1-58.86,58.85H1092.38a58.85,58.85,0,0,1-58.85-58.85h0a58.85,58.85,0,0,1,58.85-58.85h196.17A58.85,58.85,0,0,1,1347.41,1564.61Z"/><path class="cls-71" d="M1288.57,1623.46h0a58.85,58.85,0,0,1-58.85-58.86V1368.43a58.85,58.85,0,0,1,58.85-58.85h0a58.85,58.85,0,0,1,58.85,58.85V1564.6A58.85,58.85,0,0,1,1288.57,1623.46Z"/><path class="cls-72" d="M1543.59,1368.43h0a58.85,58.85,0,0,1-58.86,58.85H1288.56a58.85,58.85,0,0,1-58.85-58.85h0a58.85,58.85,0,0,1,58.85-58.85h196.17A58.85,58.85,0,0,1,1543.59,1368.43Z"/><path class="cls-73" d="M1406.27,1741.16h0a58.86,58.86,0,0,1-58.85-58.86V1486.13a58.85,58.85,0,0,1,58.85-58.85h0a58.85,58.85,0,0,1,58.85,58.85V1682.3A58.86,58.86,0,0,1,1406.27,1741.16Z"/><path class="cls-74" d="M1661.29,1486.14h0a58.85,58.85,0,0,1-58.86,58.85H1406.26a58.85,58.85,0,0,1-58.85-58.85h0a58.85,58.85,0,0,1,58.85-58.85h196.17A58.85,58.85,0,0,1,1661.29,1486.14Z"/><path class="cls-75" d="M1524,1858.87h0a58.85,58.85,0,0,1-58.85-58.86V1603.84A58.85,58.85,0,0,1,1524,1545h0a58.85,58.85,0,0,1,58.85,58.85V1800A58.85,58.85,0,0,1,1524,1858.87Z"/><path class="cls-76" d="M1779,1603.84h0a58.85,58.85,0,0,1-58.86,58.85H1524a58.85,58.85,0,0,1-58.85-58.85h0A58.85,58.85,0,0,1,1524,1545h196.17A58.85,58.85,0,0,1,1779,1603.84Z"/><path class="cls-77" d="M543.11,485.66h0a58.85,58.85,0,0,1-58.85-58.85V230.64a58.85,58.85,0,0,1,58.85-58.86h0A58.85,58.85,0,0,1,602,230.64V426.81A58.85,58.85,0,0,1,543.11,485.66Z"/><path class="cls-78" d="M660.82,603.37h0A58.85,58.85,0,0,1,602,544.52V348.35a58.85,58.85,0,0,1,58.85-58.86h0a58.85,58.85,0,0,1,58.85,58.86V544.52A58.85,58.85,0,0,1,660.82,603.37Z"/><path class="cls-79" d="M778.51,721.07h0a58.85,58.85,0,0,1-58.85-58.85V466.05a58.85,58.85,0,0,1,58.85-58.86h0a58.85,58.85,0,0,1,58.85,58.86V662.22A58.85,58.85,0,0,1,778.51,721.07Z"/><path class="cls-80" d="M1033.54,466.05h0a58.85,58.85,0,0,1-58.85,58.85H778.52a58.85,58.85,0,0,1-58.86-58.85h0a58.85,58.85,0,0,1,58.86-58.85H974.69A58.85,58.85,0,0,1,1033.54,466.05Z"/><path class="cls-81" d="M974.69,524.9h0a58.85,58.85,0,0,1-58.85-58.85V269.88A58.85,58.85,0,0,1,974.69,211h0a58.85,58.85,0,0,1,58.85,58.86V466.05A58.85,58.85,0,0,1,974.69,524.9Z"/><path class="cls-82" d="M896.22,838.77h0a58.85,58.85,0,0,1-58.85-58.86V583.75a58.85,58.85,0,0,1,58.85-58.86h0a58.85,58.85,0,0,1,58.85,58.86V779.91A58.85,58.85,0,0,1,896.22,838.77Z"/><path class="cls-83" d="M1151.24,583.75h0a58.85,58.85,0,0,1-58.86,58.85H896.22a58.85,58.85,0,0,1-58.86-58.85h0a58.85,58.85,0,0,1,58.86-58.85h196.16A58.85,58.85,0,0,1,1151.24,583.75Z"/><path class="cls-84" d="M1092.4,642.6h0a58.85,58.85,0,0,1-58.85-58.85V387.58a58.85,58.85,0,0,1,58.85-58.86h0a58.85,58.85,0,0,1,58.85,58.86V583.75A58.85,58.85,0,0,1,1092.4,642.6Z"/><path class="cls-85" d="M1013.93,956.48h0a58.85,58.85,0,0,1-58.85-58.86V701.46a58.85,58.85,0,0,1,58.85-58.86h0a58.85,58.85,0,0,1,58.85,58.86V897.62A58.85,58.85,0,0,1,1013.93,956.48Z"/><path class="cls-86" d="M1269,701.45h0a58.85,58.85,0,0,1-58.86,58.85H1013.93a58.85,58.85,0,0,1-58.86-58.85h0a58.85,58.85,0,0,1,58.86-58.85h196.16A58.85,58.85,0,0,1,1269,701.45Z"/><path class="cls-87" d="M1210.1,760.3h0a58.85,58.85,0,0,1-58.85-58.86V505.28a58.85,58.85,0,0,1,58.85-58.86h0A58.85,58.85,0,0,1,1269,505.28V701.44A58.85,58.85,0,0,1,1210.1,760.3Z"/><path class="cls-88" d="M1465.12,505.28h0a58.85,58.85,0,0,1-58.86,58.85H1210.09a58.85,58.85,0,0,1-58.85-58.85h0a58.85,58.85,0,0,1,58.85-58.85h196.17A58.85,58.85,0,0,1,1465.12,505.28Z"/><path class="cls-89" d="M1406.27,564.13h0a58.85,58.85,0,0,1-58.85-58.85V309.11a58.85,58.85,0,0,1,58.85-58.86h0a58.85,58.85,0,0,1,58.85,58.86V505.28A58.85,58.85,0,0,1,1406.27,564.13Z"/><path class="cls-90" d="M1131.62,1074.18h0a58.85,58.85,0,0,1-58.85-58.86V819.16a58.85,58.85,0,0,1,58.85-58.86h0a58.85,58.85,0,0,1,58.85,58.86v196.16A58.85,58.85,0,0,1,1131.62,1074.18Z"/><path class="cls-91" d="M1386.65,819.16h0A58.85,58.85,0,0,1,1327.79,878H1131.62a58.85,58.85,0,0,1-58.85-58.85h0a58.85,58.85,0,0,1,58.85-58.85h196.17A58.85,58.85,0,0,1,1386.65,819.16Z"/><path class="cls-92" d="M1327.8,878h0A58.85,58.85,0,0,1,1269,819.16V623a58.85,58.85,0,0,1,58.85-58.86h0A58.85,58.85,0,0,1,1386.65,623V819.16A58.85,58.85,0,0,1,1327.8,878Z"/><path class="cls-93" d="M1582.82,623h0A58.85,58.85,0,0,1,1524,681.83H1327.79A58.85,58.85,0,0,1,1268.94,623h0a58.85,58.85,0,0,1,58.85-58.85H1524A58.85,58.85,0,0,1,1582.82,623Z"/><path class="cls-94" d="M1249.33,1191.88h0a58.85,58.85,0,0,1-58.85-58.86V936.85A58.85,58.85,0,0,1,1249.33,878h0a58.85,58.85,0,0,1,58.85,58.85V1133A58.85,58.85,0,0,1,1249.33,1191.88Z"/><path class="cls-95" d="M1504.35,936.86h0a58.85,58.85,0,0,1-58.86,58.85H1249.32a58.85,58.85,0,0,1-58.85-58.85h0A58.85,58.85,0,0,1,1249.32,878h196.17A58.85,58.85,0,0,1,1504.35,936.86Z"/><path class="cls-96" d="M1445.51,995.71h0a58.85,58.85,0,0,1-58.85-58.86V740.69a58.85,58.85,0,0,1,58.85-58.86h0a58.85,58.85,0,0,1,58.85,58.86V936.85A58.85,58.85,0,0,1,1445.51,995.71Z"/><path class="cls-97" d="M1700.53,740.68h0a58.85,58.85,0,0,1-58.86,58.85H1445.5a58.85,58.85,0,0,1-58.85-58.85h0a58.85,58.85,0,0,1,58.85-58.85h196.17A58.85,58.85,0,0,1,1700.53,740.68Z"/><path class="cls-98" d="M1367,1309.59h0a58.85,58.85,0,0,1-58.85-58.86V1054.56A58.85,58.85,0,0,1,1367,995.71h0a58.85,58.85,0,0,1,58.85,58.85v196.17A58.85,58.85,0,0,1,1367,1309.59Z"/><path class="cls-99" d="M1622.06,1054.56h0a58.85,58.85,0,0,1-58.86,58.85H1367a58.85,58.85,0,0,1-58.85-58.85h0A58.85,58.85,0,0,1,1367,995.71H1563.2A58.85,58.85,0,0,1,1622.06,1054.56Z"/><path class="cls-100" d="M1563.21,1113.41h0a58.85,58.85,0,0,1-58.85-58.86V858.38a58.85,58.85,0,0,1,58.85-58.85h0a58.85,58.85,0,0,1,58.85,58.85v196.17A58.85,58.85,0,0,1,1563.21,1113.41Z"/><path class="cls-101" d="M1818.23,858.39h0a58.85,58.85,0,0,1-58.86,58.85H1563.2a58.85,58.85,0,0,1-58.85-58.85h0a58.85,58.85,0,0,1,58.85-58.85h196.17A58.85,58.85,0,0,1,1818.23,858.39Z"/><path class="cls-102" d="M1484.73,1427.29h0a58.85,58.85,0,0,1-58.85-58.86V1172.26a58.85,58.85,0,0,1,58.85-58.85h0a58.85,58.85,0,0,1,58.85,58.85v196.17A58.85,58.85,0,0,1,1484.73,1427.29Z"/><path class="cls-103" d="M1739.76,1172.27h0a58.85,58.85,0,0,1-58.86,58.85H1484.73a58.85,58.85,0,0,1-58.85-58.85h0a58.85,58.85,0,0,1,58.85-58.85H1680.9A58.85,58.85,0,0,1,1739.76,1172.27Z"/><path class="cls-104" d="M1680.91,1231.12h0a58.85,58.85,0,0,1-58.85-58.86V976.09a58.85,58.85,0,0,1,58.85-58.85h0a58.85,58.85,0,0,1,58.85,58.85v196.17A58.85,58.85,0,0,1,1680.91,1231.12Z"/><path class="cls-105" d="M1935.93,976.09h0a58.85,58.85,0,0,1-58.86,58.85H1680.9a58.85,58.85,0,0,1-58.85-58.85h0a58.85,58.85,0,0,1,58.85-58.85h196.17A58.85,58.85,0,0,1,1935.93,976.09Z"/><path class="cls-106" d="M1524,681.83h0A58.85,58.85,0,0,1,1465.12,623V426.81A58.85,58.85,0,0,1,1524,368h0a58.85,58.85,0,0,1,58.85,58.86V623A58.85,58.85,0,0,1,1524,681.83Z"/><path class="cls-107" d="M1779,426.81h0a58.85,58.85,0,0,1-58.86,58.85H1524a58.85,58.85,0,0,1-58.85-58.85h0A58.85,58.85,0,0,1,1524,368h196.17A58.85,58.85,0,0,1,1779,426.81Z"/><path class="cls-108" d="M1720.15,485.66h0a58.85,58.85,0,0,1-58.85-58.85V230.64a58.85,58.85,0,0,1,58.85-58.86h0A58.85,58.85,0,0,1,1779,230.64V426.81A58.85,58.85,0,0,1,1720.15,485.66Z"/><path class="cls-109" d="M1641.68,799.54h0a58.85,58.85,0,0,1-58.85-58.85V544.52a58.85,58.85,0,0,1,58.85-58.86h0a58.85,58.85,0,0,1,58.85,58.86V740.69A58.85,58.85,0,0,1,1641.68,799.54Z"/><path class="cls-110" d="M1896.7,544.51h0a58.85,58.85,0,0,1-58.86,58.85H1641.67a58.85,58.85,0,0,1-58.85-58.85h0a58.85,58.85,0,0,1,58.85-58.85h196.17A58.85,58.85,0,0,1,1896.7,544.51Z"/><path class="cls-111" d="M1837.84,603.37h0A58.85,58.85,0,0,1,1779,544.52V348.35a58.85,58.85,0,0,1,58.85-58.86h0a58.85,58.85,0,0,1,58.85,58.86V544.52A58.85,58.85,0,0,1,1837.84,603.37Z"/><path class="cls-112" d="M1759.38,917.24h0a58.85,58.85,0,0,1-58.85-58.86V662.22a58.85,58.85,0,0,1,58.85-58.86h0a58.85,58.85,0,0,1,58.85,58.86V858.38A58.85,58.85,0,0,1,1759.38,917.24Z"/><path class="cls-113" d="M2014.41,662.22h0a58.85,58.85,0,0,1-58.86,58.85H1759.38a58.85,58.85,0,0,1-58.85-58.85h0a58.85,58.85,0,0,1,58.85-58.85h196.17A58.85,58.85,0,0,1,2014.41,662.22Z"/><path class="cls-114" d="M1955.55,721.07h0a58.85,58.85,0,0,1-58.85-58.85V466.05a58.85,58.85,0,0,1,58.85-58.86h0a58.85,58.85,0,0,1,58.85,58.86V662.22A58.85,58.85,0,0,1,1955.55,721.07Z"/><path class="cls-115" d="M2210.58,466h0a58.85,58.85,0,0,1-58.86,58.85H1955.55A58.85,58.85,0,0,1,1896.7,466h0a58.85,58.85,0,0,1,58.85-58.85h196.17A58.85,58.85,0,0,1,2210.58,466Z"/><path class="cls-116" d="M1877.08,1034.94h0a58.85,58.85,0,0,1-58.85-58.86V779.91a58.85,58.85,0,0,1,58.85-58.85h0a58.85,58.85,0,0,1,58.85,58.85V976.08A58.85,58.85,0,0,1,1877.08,1034.94Z"/><path class="cls-117" d="M2132.09,779.92h0a58.85,58.85,0,0,1-58.85,58.85H1877.07a58.85,58.85,0,0,1-58.85-58.85h0a58.85,58.85,0,0,1,58.85-58.85h196.17A58.85,58.85,0,0,1,2132.09,779.92Z"/><path class="cls-118" d="M1602.44,1545h0a58.85,58.85,0,0,1-58.85-58.86V1290a58.85,58.85,0,0,1,58.85-58.85h0a58.85,58.85,0,0,1,58.85,58.85v196.17A58.85,58.85,0,0,1,1602.44,1545Z"/><path class="cls-119" d="M1857.46,1290h0a58.85,58.85,0,0,1-58.86,58.85H1602.43a58.85,58.85,0,0,1-58.85-58.85h0a58.85,58.85,0,0,1,58.85-58.85H1798.6A58.85,58.85,0,0,1,1857.46,1290Z"/><path class="cls-120" d="M1798.62,1348.82h0a58.85,58.85,0,0,1-58.85-58.86V1093.79a58.85,58.85,0,0,1,58.85-58.85h0a58.85,58.85,0,0,1,58.85,58.85V1290A58.85,58.85,0,0,1,1798.62,1348.82Z"/><path class="cls-121" d="M2053.64,1093.79h0a58.85,58.85,0,0,1-58.86,58.85H1798.61a58.85,58.85,0,0,1-58.85-58.85h0a58.85,58.85,0,0,1,58.85-58.85h196.17A58.85,58.85,0,0,1,2053.64,1093.79Z"/><path class="cls-122" d="M1720.15,1662.7h0a58.85,58.85,0,0,1-58.85-58.86V1407.67a58.85,58.85,0,0,1,58.85-58.85h0a58.85,58.85,0,0,1,58.85,58.85v196.17A58.85,58.85,0,0,1,1720.15,1662.7Z"/><path class="cls-123" d="M1975.17,1407.67h0a58.85,58.85,0,0,1-58.86,58.85H1720.14a58.85,58.85,0,0,1-58.85-58.85h0a58.85,58.85,0,0,1,58.85-58.85h196.17A58.85,58.85,0,0,1,1975.17,1407.67Z"/><path class="cls-124" d="M1916.32,1466.52h0a58.85,58.85,0,0,1-58.85-58.86V1211.49a58.85,58.85,0,0,1,58.85-58.85h0a58.85,58.85,0,0,1,58.85,58.85v196.17A58.85,58.85,0,0,1,1916.32,1466.52Z"/><path class="cls-125" d="M2171.34,1211.5h0a58.85,58.85,0,0,1-58.86,58.85H1916.31a58.85,58.85,0,0,1-58.85-58.85h0a58.85,58.85,0,0,1,58.85-58.85h196.17A58.85,58.85,0,0,1,2171.34,1211.5Z"/><path class="cls-126" d="M1837.84,1780.4h0a58.85,58.85,0,0,1-58.85-58.86V1525.37a58.85,58.85,0,0,1,58.85-58.85h0a58.85,58.85,0,0,1,58.85,58.85v196.17A58.85,58.85,0,0,1,1837.84,1780.4Z"/><path class="cls-127" d="M2092.87,1525.38h0a58.85,58.85,0,0,1-58.86,58.85H1837.84a58.85,58.85,0,0,1-58.85-58.85h0a58.85,58.85,0,0,1,58.85-58.85H2034A58.85,58.85,0,0,1,2092.87,1525.38Z"/><path class="cls-128" d="M2034,1584.23h0a58.85,58.85,0,0,1-58.85-58.86V1329.2a58.85,58.85,0,0,1,58.85-58.85h0a58.85,58.85,0,0,1,58.85,58.85v196.17A58.85,58.85,0,0,1,2034,1584.23Z"/><path class="cls-129" d="M2289,1329.2h0a58.85,58.85,0,0,1-58.85,58.85H2034a58.85,58.85,0,0,1-58.85-58.85h0a58.85,58.85,0,0,1,58.85-58.85h196.17A58.85,58.85,0,0,1,2289,1329.2Z"/><path class="cls-130" d="M1994.79,1152.65h0a58.85,58.85,0,0,1-58.85-58.86V897.62a58.85,58.85,0,0,1,58.85-58.85h0a58.85,58.85,0,0,1,58.85,58.85v196.17A58.85,58.85,0,0,1,1994.79,1152.65Z"/><path class="cls-131" d="M2249.81,897.62h0A58.85,58.85,0,0,1,2191,956.47H1994.78a58.85,58.85,0,0,1-58.85-58.85h0a58.85,58.85,0,0,1,58.85-58.85H2191A58.85,58.85,0,0,1,2249.81,897.62Z"/></g></g></g><g id="edge_one_copy_2" data-name="edge one copy 2"><text class="cls-132" transform="translate(223.97 455.41) rotate(-53.71)">O</text><text class="cls-132" transform="translate(240.71 432.63) rotate(-52.06)">N</text><text class="cls-132" transform="translate(257.3 411.42) rotate(-50.62)">E</text><text class="cls-132" transform="matrix(0.65, -0.76, 0.76, 0.65, 270.8, 395.03)"> </text><text class="cls-132" transform="matrix(0.66, -0.75, 0.75, 0.66, 277.26, 387.28)">O</text><text class="cls-132" transform="matrix(0.68, -0.73, 0.73, 0.68, 296, 366.08)">N</text><text class="cls-132" transform="translate(314.41 346.46) rotate(-45.45)">E</text><text class="cls-132" transform="translate(329.35 331.35) rotate(-44.51)"> </text><text class="cls-132" transform="matrix(0.73, -0.69, 0.69, 0.73, 336.48, 324.21)">O</text><text class="cls-132" transform="translate(357.06 304.8) rotate(-41.71)">N</text><text class="cls-132" transform="translate(377.15 286.93) rotate(-40.26)">E</text><text class="cls-132" transform="matrix(0.77, -0.63, 0.63, 0.77, 393.37, 273.25)"> </text><text class="cls-132" transform="matrix(0.78, -0.63, 0.63, 0.78, 401.25, 266.8)"> </text><text class="cls-132" transform="translate(409.16 260.46) rotate(-38.1)"> </text><text class="cls-132" transform="matrix(0.79, -0.61, 0.61, 0.79, 417.16, 254.18)"> </text><text class="cls-132" transform="matrix(0.8, -0.6, 0.6, 0.8, 425.22, 248.01)"> </text><text class="cls-132" transform="translate(433.36 241.9) rotate(-36.27)"> </text><text class="cls-132" transform="matrix(0.81, -0.58, 0.58, 0.81, 441.53, 235.9)"> </text><text class="cls-132" transform="translate(449.77 229.98) rotate(-35.05)"> </text><text class="cls-132" transform="matrix(0.82, -0.57, 0.57, 0.82, 458.1, 224.14)"> </text><text class="cls-132" transform="matrix(0.83, -0.56, 0.56, 0.83, 466.48, 218.4)"> </text><text class="cls-132" transform="matrix(0.84, -0.55, 0.55, 0.84, 474.92, 212.74)"> </text><text class="cls-132" transform="translate(483.42 207.18) rotate(-32.6)"> </text><text class="cls-132" transform="matrix(0.85, -0.53, 0.53, 0.85, 491.97, 201.71)"> </text><text class="cls-132" transform="matrix(0.85, -0.52, 0.52, 0.85, 500.59, 196.33)"> </text><text class="cls-132" transform="matrix(0.86, -0.51, 0.51, 0.86, 509.26, 191.04)"> </text><text class="cls-132" transform="matrix(0.86, -0.5, 0.5, 0.86, 517.99, 185.85)"> </text><text class="cls-132" transform="matrix(0.87, -0.49, 0.49, 0.87, 526.76, 180.75)"> </text><text class="cls-132" transform="translate(535.59 175.75) rotate(-28.91)"> </text><text class="cls-132" transform="matrix(0.88, -0.47, 0.47, 0.88, 544.49, 170.84)"> </text><text class="cls-132" transform="translate(553.45 166.02) rotate(-27.68)"> </text><text class="cls-132" transform="translate(562.42 161.31) rotate(-27.07)"> </text><text class="cls-132" transform="matrix(0.9, -0.45, 0.45, 0.9, 571.48, 156.68)"> </text><text class="cls-132" transform="translate(580.57 152.15) rotate(-25.84)"> </text><text class="cls-132" transform="translate(589.7 147.73) rotate(-25.22)"> </text><text class="cls-132" transform="translate(598.89 143.4) rotate(-24.61)"> </text><text class="cls-132" transform="matrix(0.91, -0.41, 0.41, 0.91, 608.14, 139.17)"> </text><text class="cls-132" transform="translate(617.42 135.04) rotate(-23.37)"> </text><text class="cls-132" transform="translate(626.74 131.01) rotate(-22.76)"> </text><text class="cls-132" transform="translate(636.11 127.08) rotate(-22.14)"> </text><text class="cls-132" transform="translate(645.51 123.25) rotate(-21.53)"> </text><text class="cls-132" transform="translate(654.96 119.52) rotate(-20.91)"> </text><text class="cls-132" transform="matrix(0.94, -0.35, 0.35, 0.94, 664.43, 115.91)"> </text><text class="cls-132" transform="translate(673.97 112.38) rotate(-19.68)"> </text><text class="cls-132" transform="matrix(0.95, -0.33, 0.33, 0.95, 683.54, 108.95)"> </text><text class="cls-132" transform="translate(693.14 105.64) rotate(-18.45)"> </text><text class="cls-132" transform="translate(702.76 102.42) rotate(-17.84)"> </text><text class="cls-132" transform="translate(712.44 99.31) rotate(-17.22)"> </text><text class="cls-132" transform="matrix(0.96, -0.29, 0.29, 0.96, 722.14, 96.3)"> </text><text class="cls-132" transform="translate(731.87 93.4) rotate(-16)"> </text><text class="cls-132" transform="translate(741.62 90.6) rotate(-15.39)"> </text><text class="cls-132" transform="matrix(0.97, -0.25, 0.25, 0.97, 751.42, 87.91)"> </text><text class="cls-132" transform="translate(761.24 85.32) rotate(-14.16)"> </text><text class="cls-132" transform="matrix(0.97, -0.23, 0.23, 0.97, 771.09, 82.83)"> </text><text class="cls-132" transform="translate(780.97 80.45) rotate(-12.94)"> </text><text class="cls-132" transform="matrix(0.98, -0.21, 0.21, 0.98, 790.86, 78.18)"> </text><text class="cls-132" transform="translate(800.79 76) rotate(-11.72)"> </text><text class="cls-132" transform="translate(810.74 73.94) rotate(-11.11)"> </text><text class="cls-132" transform="translate(820.71 71.98) rotate(-10.51)"> </text><text class="cls-132" transform="matrix(0.99, -0.17, 0.17, 0.99, 830.7, 70.13)"> </text><text class="cls-132" transform="translate(840.7 68.38) rotate(-9.3)"> </text><text class="cls-132" transform="translate(850.73 66.74) rotate(-8.69)"> </text><text class="cls-132" transform="translate(860.76 65.2) rotate(-8.09)"> </text><text class="cls-132" transform="translate(870.81 63.78) rotate(-7.49)"> </text><text class="cls-132" transform="translate(880.93 62.47) rotate(-7.22)"> </text><text class="cls-132" transform="matrix(1, -0.09, 0.09, 1, 890.88, 61.05)">O</text><text class="cls-132" transform="matrix(1, -0.07, 0.07, 1, 919.07, 58.31)">N</text><text class="cls-132" transform="translate(945.92 56.41) rotate(-2.7)">E</text><text class="cls-132" transform="translate(967.11 55.46) rotate(-1.76)"> </text><text class="cls-132" transform="translate(977.21 55.05) rotate(-0.61)">O</text><text class="cls-132" transform="translate(1005.5 54.76) rotate(1.04)">N</text><text class="cls-132" transform="translate(1032.38 55.28) rotate(2.49)">E</text><text class="cls-132" transform="matrix(1, 0.06, -0.06, 1, 1053.59, 56.25)"> </text><text class="cls-132" transform="translate(1063.68 56.76) rotate(4.59)">O</text><text class="cls-132" transform="matrix(0.99, 0.11, -0.11, 0.99, 1091.87, 59.03)">N</text><text class="cls-132" transform="translate(1118.62 62) rotate(7.72)">E</text><text class="cls-132" transform="matrix(0.99, 0.15, -0.15, 0.99, 1139.63, 64.89)"> </text><text class="cls-132" transform="translate(1149.68 66.42) rotate(9.28)"> </text><text class="cls-132" transform="translate(1159.71 68.06) rotate(9.9)"> </text><text class="cls-132" transform="matrix(0.98, 0.18, -0.18, 0.98, 1169.71, 69.81)"> </text><text class="cls-132" transform="translate(1179.71 71.66) rotate(11.13)"> </text><text class="cls-132" transform="translate(1189.67 73.62) rotate(11.74)"> </text><text class="cls-132" transform="translate(1199.62 75.69) rotate(12.36)"> </text><text class="cls-132" transform="translate(1209.53 77.86) rotate(12.98)"> </text><text class="cls-132" transform="matrix(0.97, 0.23, -0.23, 0.97, 1219.44, 80.14)"> </text><text class="cls-132" transform="matrix(0.97, 0.25, -0.25, 0.97, 1229.3, 82.53)"> </text><text class="cls-132" transform="translate(1239.13 85.02) rotate(14.82)"> </text><text class="cls-132" transform="matrix(0.96, 0.27, -0.27, 0.96, 1248.97, 87.62)"> </text><text class="cls-132" transform="translate(1258.77 90.32) rotate(16.05)"> </text><text class="cls-132" transform="translate(1268.53 93.13) rotate(16.67)"> </text><text class="cls-132" transform="matrix(0.95, 0.3, -0.3, 0.95, 1278.26, 96.04)"> </text><text class="cls-132" transform="matrix(0.95, 0.31, -0.31, 0.95, 1287.94, 99.05)"> </text><text class="cls-132" transform="translate(1297.62 102.18) rotate(18.51)"> </text><text class="cls-132" transform="translate(1307.24 105.4) rotate(19.12)"> </text><text class="cls-132" transform="translate(1316.84 108.73) rotate(19.74)"> </text><text class="cls-132" transform="translate(1326.4 112.16) rotate(20.35)"> </text><text class="cls-132" transform="matrix(0.93, 0.36, -0.36, 0.93, 1335.93, 115.69)"> </text><text class="cls-132" transform="translate(1345.4 119.32) rotate(21.57)"> </text><text class="cls-132" transform="matrix(0.93, 0.38, -0.38, 0.93, 1354.86, 123.06)"> </text><text class="cls-132" transform="translate(1364.26 126.89) rotate(22.8)"> </text><text class="cls-132" transform="translate(1373.63 130.83) rotate(23.41)"> </text><text class="cls-132" transform="translate(1382.93 134.85) rotate(24.02)"> </text><text class="cls-132" transform="matrix(0.91, 0.42, -0.42, 0.91, 1392.22, 139)"> </text><text class="cls-132" transform="translate(1401.47 143.23) rotate(25.24)"> </text><text class="cls-132" transform="translate(1410.64 147.56) rotate(25.85)"> </text><text class="cls-132" transform="translate(1419.78 151.99) rotate(26.46)"> </text><text class="cls-132" transform="translate(1428.87 156.52) rotate(27.07)"> </text><text class="cls-132" transform="matrix(0.89, 0.46, -0.46, 0.89, 1437.91, 161.13)"> </text><text class="cls-132" transform="translate(1446.9 165.85) rotate(28.29)"> </text><text class="cls-132" transform="translate(1455.85 170.67) rotate(28.9)"> </text><text class="cls-132" transform="matrix(0.87, 0.49, -0.49, 0.87, 1464.74, 175.58)"> </text><text class="cls-132" transform="matrix(0.86, 0.5, -0.5, 0.86, 1473.58, 180.58)"> </text><text class="cls-132" transform="matrix(0.86, 0.51, -0.51, 0.86, 1482.37, 185.68)"> </text><text class="cls-132" transform="matrix(0.85, 0.52, -0.52, 0.85, 1491.1, 190.86)"> </text><text class="cls-132" transform="matrix(0.85, 0.53, -0.53, 0.85, 1499.76, 196.14)"> </text><text class="cls-132" transform="matrix(0.84, 0.54, -0.54, 0.84, 1508.4, 201.52)"> </text><text class="cls-132" transform="matrix(0.84, 0.55, -0.55, 0.84, 1516.97, 206.99)"> </text><text class="cls-132" transform="translate(1525.46 212.54) rotate(33.77)"> </text><text class="cls-132" transform="matrix(0.83, 0.56, -0.56, 0.83, 1533.91, 218.19)"> </text><text class="cls-132" transform="translate(1542.29 223.93) rotate(34.98)"> </text><text class="cls-132" transform="matrix(0.81, 0.58, -0.58, 0.81, 1550.62, 229.75)"> </text><text class="cls-132" transform="matrix(0.81, 0.59, -0.59, 0.81, 1558.88, 235.67)"> </text><text class="cls-132" transform="matrix(0.8, 0.6, -0.6, 0.8, 1567.06, 241.65)"> </text><text class="cls-132" transform="translate(1575.21 247.75) rotate(37.41)"> </text><text class="cls-132" transform="matrix(0.79, 0.62, -0.62, 0.79, 1583.28, 253.92)"> </text><text class="cls-132" transform="translate(1591.29 260.18) rotate(38.63)"> </text><text class="cls-132" transform="matrix(0.77, 0.63, -0.63, 0.77, 1599.22, 266.52)"> </text><text class="cls-132" transform="matrix(0.77, 0.64, -0.64, 0.77, 1607.09, 272.95)"> </text><text class="cls-132" transform="translate(1614.89 279.45) rotate(40.45)"> </text><text class="cls-132" transform="translate(1622.62 286.04) rotate(41.06)"> </text><text class="cls-132" transform="matrix(0.75, 0.66, -0.66, 0.75, 1630.28, 292.72)"> </text><text class="cls-132" transform="matrix(0.74, 0.67, -0.67, 0.74, 1637.87, 299.47)"> </text><text class="cls-132" transform="translate(1645.38 306.29) rotate(42.88)"> </text><text class="cls-132" transform="translate(1652.82 313.2) rotate(43.48)"> </text><text class="cls-132" transform="translate(1660.2 320.2) rotate(44.09)"> </text><text class="cls-132" transform="matrix(0.71, 0.7, -0.7, 0.71, 1667.49, 327.26)"> </text><text class="cls-132" transform="translate(1674.72 334.41) rotate(45.31)"> </text><text class="cls-132" transform="translate(1681.87 341.64) rotate(45.92)"> </text><text class="cls-132" transform="translate(1688.95 348.81) rotate(47.07)">O</text><text class="cls-132" transform="translate(1708.21 369.53) rotate(48.72)">N</text><text class="cls-132" transform="matrix(0.64, 0.77, -0.77, 0.64, 1725.93, 389.77)">E</text><text class="cls-132" transform="matrix(0.63, 0.78, -0.78, 0.63, 1739.51, 406.11)"> </text><text class="cls-132" transform="matrix(0.61, 0.79, -0.79, 0.61, 1745.92, 413.91)">O</text><text class="cls-132" transform="translate(1763.22 436.28) rotate(53.92)">N</text><text class="cls-132" transform="translate(1779.03 458.02) rotate(55.37)">E</text><text class="cls-132" transform="translate(1791.07 475.54) rotate(56.31)"> </text><text class="cls-132" transform="matrix(0.54, 0.84, -0.84, 0.54, 1796.75, 483.89)">O</text><text class="cls-132" transform="translate(1811.95 507.73) rotate(59.14)">N</text><text class="cls-132" transform="matrix(0.49, 0.87, -0.87, 0.49, 1825.72, 530.84)">E</text><text class="cls-132" transform="translate(1836.11 549.37) rotate(61.54)"> </text><text class="cls-132" transform="translate(1840.94 558.29) rotate(62.15)"> </text><text class="cls-132" transform="matrix(0.46, 0.89, -0.89, 0.46, 1845.69, 567.27)"> </text><text class="cls-132" transform="translate(1850.33 576.29) rotate(63.38)"> </text><text class="cls-132" transform="translate(1854.88 585.37) rotate(64)"> </text><text class="cls-132" transform="matrix(0.43, 0.9, -0.9, 0.43, 1859.34, 594.51)"> </text><text class="cls-132" transform="translate(1863.69 603.68) rotate(65.23)"> </text><text class="cls-132" transform="translate(1867.95 612.91) rotate(65.85)"> </text><text class="cls-132" transform="translate(1872.11 622.18) rotate(66.46)"> </text><text class="cls-132" transform="matrix(0.39, 0.92, -0.92, 0.39, 1876.16, 631.48)"> </text><text class="cls-132" transform="translate(1880.11 640.83) rotate(67.69)"> </text><text class="cls-132" transform="translate(1883.97 650.22) rotate(68.31)"> </text><text class="cls-132" transform="translate(1887.72 659.66) rotate(68.92)"> </text><text class="cls-132" transform="translate(1891.38 669.16) rotate(69.54)"> </text><text class="cls-132" transform="translate(1894.93 678.66) rotate(70.16)"> </text><text class="cls-132" transform="matrix(0.33, 0.94, -0.94, 0.33, 1898.38, 688.22)"> </text><text class="cls-132" transform="matrix(0.32, 0.95, -0.95, 0.32, 1901.72, 697.8)"> </text><text class="cls-132" transform="matrix(0.31, 0.95, -0.95, 0.31, 1904.97, 707.44)"> </text><text class="cls-132" transform="translate(1908.11 717.1) rotate(72.61)"> </text><text class="cls-132" transform="translate(1911.14 726.79) rotate(73.23)"> </text><text class="cls-132" transform="translate(1914.08 736.53) rotate(73.84)"> </text><text class="cls-132" transform="translate(1916.9 746.27) rotate(74.45)"> </text><text class="cls-132" transform="translate(1919.62 756.05) rotate(75.06)"> </text><text class="cls-132" transform="translate(1922.24 765.86) rotate(75.68)"> </text><text class="cls-132" transform="translate(1924.76 775.72) rotate(76.29)"> </text><text class="cls-132" transform="matrix(0.23, 0.97, -0.97, 0.23, 1927.16, 785.57)"> </text><text class="cls-132" transform="translate(1929.46 795.47) rotate(77.51)"> </text><text class="cls-132" transform="translate(1931.66 805.39) rotate(78.12)"> </text><text class="cls-132" transform="translate(1933.75 815.33) rotate(78.72)"> </text><text class="cls-132" transform="translate(1935.74 825.29) rotate(79.33)"> </text><text class="cls-132" transform="translate(1937.62 835.26) rotate(79.94)"> </text><text class="cls-132" transform="translate(1939.4 845.28) rotate(80.54)"> </text><text class="cls-132" transform="translate(1941.07 855.29) rotate(81.15)"> </text><text class="cls-132" transform="matrix(0.14, 0.99, -0.99, 0.14, 1942.63, 865.34)"> </text><text class="cls-132" transform="translate(1944.09 875.38) rotate(82.35)"> </text><text class="cls-132" transform="matrix(0.13, 0.99, -0.99, 0.13, 1945.36, 885.5)">O</text><text class="cls-132" transform="translate(1948.73 913.48) rotate(85.11)">N</text><text class="cls-132" transform="translate(1950.99 940.28) rotate(86.54)">E</text><text class="cls-132" transform="translate(1952.23 961.5) rotate(87.47)"> </text><text class="cls-132" transform="matrix(0.02, 1, -1, 0.02, 1952.77, 971.59)">O</text><text class="cls-132" transform="translate(1953.44 999.85) rotate(90.27)">N</text><text class="cls-132" transform="translate(1953.28 1026.77) rotate(91.71)">E</text><text class="cls-132" transform="translate(1952.6 1048.01) rotate(92.66)"> </text><text class="cls-132" transform="matrix(-0.07, 1, -1, -0.07, 1952.22, 1058.1)">O</text><text class="cls-132" transform="matrix(-0.1, 1, -1, -0.1, 1950.33, 1086.3)">N</text><text class="cls-132" transform="matrix(-0.12, 0.99, -0.99, -0.12, 1947.73, 1113.07)">E</text><text class="cls-132" transform="translate(1945.12 1134.14) rotate(97.89)"> </text><text class="cls-132" transform="matrix(-0.15, 0.99, -0.99, -0.15, 1943.72, 1144.22)"> </text><text class="cls-132" transform="translate(1942.22 1154.27) rotate(99.12)"> </text><text class="cls-132" transform="translate(1940.61 1164.29) rotate(99.73)"> </text><text class="cls-132" transform="matrix(-0.18, 0.98, -0.98, -0.18, 1938.9, 1174.3)"> </text><text class="cls-132" transform="translate(1937.07 1184.28) rotate(100.97)"> </text><text class="cls-132" transform="matrix(-0.2, 0.98, -0.98, -0.2, 1935.14, 1194.25)"> </text><text class="cls-132" transform="translate(1933.1 1204.21) rotate(102.2)"> </text><text class="cls-132" transform="translate(1930.96 1214.14) rotate(102.81)"> </text><text class="cls-132" transform="matrix(-0.23, 0.97, -0.97, -0.23, 1928.7, 1224.05)"> </text><text class="cls-132" transform="translate(1926.35 1233.93) rotate(104.04)"> </text><text class="cls-132" transform="translate(1923.88 1243.79) rotate(104.66)"> </text><text class="cls-132" transform="translate(1921.31 1253.61) rotate(105.27)"> </text><text class="cls-132" transform="translate(1918.64 1263.4) rotate(105.89)"> </text><text class="cls-132" transform="translate(1915.86 1273.17) rotate(106.5)"> </text><text class="cls-132" transform="translate(1912.96 1282.93) rotate(107.12)"> </text><text class="cls-132" transform="translate(1909.98 1292.62) rotate(107.73)"> </text><text class="cls-132" transform="matrix(-0.31, 0.95, -0.95, -0.31, 1906.88, 1302.31)"> </text><text class="cls-132" transform="matrix(-0.32, 0.95, -0.95, -0.32, 1903.69, 1311.95)"> </text><text class="cls-132" transform="matrix(-0.34, 0.94, -0.94, -0.34, 1900.39, 1321.53)"> </text><text class="cls-132" transform="translate(1896.99 1331.12) rotate(110.19)"> </text><text class="cls-132" transform="translate(1893.48 1340.65) rotate(110.8)"> </text><text class="cls-132" transform="matrix(-0.37, 0.93, -0.93, -0.37, 1889.87, 1350.15)"> </text><text class="cls-132" transform="translate(1886.17 1359.6) rotate(112.03)"> </text><text class="cls-132" transform="translate(1882.36 1369.01) rotate(112.64)"> </text><text class="cls-132" transform="translate(1878.45 1378.39) rotate(113.25)"> </text><text class="cls-132" transform="translate(1874.44 1387.73) rotate(113.86)"> </text><text class="cls-132" transform="translate(1870.33 1397.01) rotate(114.47)"> </text><text class="cls-132" transform="translate(1866.12 1406.27) rotate(115.08)"> </text><text class="cls-132" transform="matrix(-0.43, 0.9, -0.9, -0.43, 1861.81, 1415.48)"> </text><text class="cls-132" transform="translate(1857.42 1424.61) rotate(116.3)"> </text><text class="cls-132" transform="translate(1852.91 1433.74) rotate(116.92)"> </text><text class="cls-132" transform="translate(1848.32 1442.77) rotate(117.52)"> </text><text class="cls-132" transform="translate(1843.62 1451.79) rotate(118.13)"> </text><text class="cls-132" transform="matrix(-0.48, 0.88, -0.88, -0.48, 1838.83, 1460.76)"> </text><text class="cls-132" transform="matrix(-0.49, 0.87, -0.87, -0.49, 1833.94, 1469.67)"> </text><text class="cls-132" transform="translate(1828.96 1478.52) rotate(119.96)"> </text><text class="cls-132" transform="translate(1823.89 1487.32) rotate(120.57)"> </text><text class="cls-132" transform="matrix(-0.52, 0.86, -0.86, -0.52, 1818.72, 1496.06)"> </text><text class="cls-132" transform="matrix(-0.53, 0.85, -0.85, -0.53, 1813.47, 1504.75)"> </text><text class="cls-132" transform="translate(1808.11 1513.39) rotate(122.4)"> </text><text class="cls-132" transform="translate(1802.68 1521.96) rotate(123)"> </text><text class="cls-132" transform="translate(1797.14 1530.49) rotate(123.61)"> </text><text class="cls-132" transform="matrix(-0.56, 0.83, -0.83, -0.56, 1791.53, 1538.93)"> </text><text class="cls-132" transform="translate(1785.8 1547.36) rotate(124.83)"> </text><text class="cls-132" transform="matrix(-0.58, 0.81, -0.81, -0.58, 1780.01, 1555.68)"> </text><text class="cls-132" transform="translate(1774.12 1563.96) rotate(126.04)"> </text><text class="cls-132" transform="matrix(-0.6, 0.8, -0.8, -0.6, 1768.14, 1572.17)"> </text><text class="cls-132" transform="translate(1762.08 1580.32) rotate(127.25)"> </text><text class="cls-132" transform="matrix(-0.61, 0.79, -0.79, -0.61, 1755.93, 1588.41)"> </text><text class="cls-132" transform="translate(1749.7 1596.43) rotate(128.47)"> </text><text class="cls-132" transform="translate(1743.38 1604.38) rotate(129.08)"> </text><text class="cls-132" transform="translate(1736.98 1612.27) rotate(129.68)"> </text><text class="cls-132" transform="translate(1730.49 1620.09) rotate(130.29)"> </text><text class="cls-132" transform="translate(1723.92 1627.83) rotate(130.9)"> </text><text class="cls-132" transform="matrix(-0.66, 0.75, -0.75, -0.66, 1717.27, 1635.51)"> </text><text class="cls-132" transform="matrix(-0.67, 0.74, -0.74, -0.67, 1710.54, 1643.12)"> </text><text class="cls-132" transform="matrix(-0.68, 0.73, -0.73, -0.68, 1703.72, 1650.66)"> </text><text class="cls-132" transform="matrix(-0.69, 0.73, -0.73, -0.69, 1696.84, 1658.11)"> </text><text class="cls-132" transform="translate(1689.87 1665.51) rotate(133.93)"> </text><text class="cls-132" transform="translate(1682.82 1672.83) rotate(134.54)"> </text><text class="cls-132" transform="matrix(-0.72, 0.7, -0.7, -0.72, 1675.79, 1680.1)">O</text><text class="cls-132" transform="translate(1655.55 1699.85) rotate(137.34)">N</text><text class="cls-132" transform="matrix(-0.75, 0.66, -0.66, -0.75, 1635.75, 1718.04)">E</text><text class="cls-132" transform="translate(1619.73 1732.02) rotate(139.73)"> </text><text class="cls-132" transform="matrix(-0.78, 0.63, -0.63, -0.78, 1612.09, 1738.62)">O</text><text class="cls-132" transform="translate(1590.15 1756.45) rotate(142.54)">N</text><text class="cls-132" transform="translate(1568.78 1772.78) rotate(143.98)">E</text><text class="cls-132" transform="matrix(-0.82, 0.57, -0.57, -0.82, 1551.56, 1785.24)"> </text><text class="cls-132" transform="translate(1543.35 1791.12) rotate(146.09)">O</text><text class="cls-132" transform="matrix(-0.85, 0.53, -0.53, -0.85, 1519.88, 1806.89)">N</text><text class="cls-132" transform="translate(1497.12 1821.21) rotate(149.2)">E</text><text class="cls-132" transform="translate(1478.83 1832.06) rotate(150.15)"> </text><text class="cls-132" transform="translate(1470.03 1837.11) rotate(150.77)"> </text><text class="cls-132" transform="translate(1461.17 1842.07) rotate(151.38)"> </text><text class="cls-132" transform="translate(1452.24 1846.94) rotate(152)"> </text><text class="cls-132" transform="translate(1443.3 1851.7) rotate(152.61)"> </text><text class="cls-132" transform="translate(1434.27 1856.37) rotate(153.23)"> </text><text class="cls-132" transform="translate(1425.19 1860.96) rotate(153.84)"> </text><text class="cls-132" transform="translate(1416.09 1865.43) rotate(154.46)"> </text><text class="cls-132" transform="translate(1406.93 1869.8) rotate(155.07)"> </text><text class="cls-132" transform="translate(1397.71 1874.09) rotate(155.69)"> </text><text class="cls-132" transform="matrix(-0.92, 0.4, -0.4, -0.92, 1388.44, 1878.28)"> </text><text class="cls-132" transform="translate(1379.15 1882.35) rotate(156.92)"> </text><text class="cls-132" transform="translate(1369.81 1886.33) rotate(157.54)"> </text><text class="cls-132" transform="matrix(-0.93, 0.37, -0.37, -0.93, 1360.41, 1890.22)"> </text><text class="cls-132" transform="translate(1350.99 1894) rotate(158.77)"> </text><text class="cls-132" transform="matrix(-0.94, 0.35, -0.35, -0.94, 1341.53, 1897.68)"> </text><text class="cls-132" transform="translate(1332.01 1901.26) rotate(160)"> </text><text class="cls-132" transform="translate(1322.47 1904.73) rotate(160.61)"> </text><text class="cls-132" transform="matrix(-0.95, 0.32, -0.32, -0.95, 1312.9, 1908.1)"> </text><text class="cls-132" transform="translate(1303.28 1911.37) rotate(161.84)"> </text><text class="cls-132" transform="matrix(-0.95, 0.3, -0.3, -0.95, 1293.63, 1914.53)"> </text><text class="cls-132" transform="translate(1283.93 1917.6) rotate(163.07)"> </text><text class="cls-132" transform="translate(1274.21 1920.56) rotate(163.68)"> </text><text class="cls-132" transform="translate(1264.45 1923.42) rotate(164.3)"> </text><text class="cls-132" transform="translate(1254.7 1926.16) rotate(164.91)"> </text><text class="cls-132" transform="translate(1244.88 1928.81) rotate(165.52)"> </text><text class="cls-132" transform="matrix(-0.97, 0.24, -0.24, -0.97, 1235.06, 1931.34)"> </text><text class="cls-132" transform="translate(1225.19 1933.78) rotate(166.74)"> </text><text class="cls-132" transform="translate(1215.31 1936.11) rotate(167.35)"> </text><text class="cls-132" transform="translate(1205.4 1938.33) rotate(167.96)"> </text><text class="cls-132" transform="translate(1195.45 1940.46) rotate(168.57)"> </text><text class="cls-132" transform="translate(1185.5 1942.47) rotate(169.17)"> </text><text class="cls-132" transform="translate(1175.51 1944.38) rotate(169.78)"> </text><text class="cls-132" transform="translate(1165.53 1946.18) rotate(170.39)"> </text><text class="cls-132" transform="translate(1155.5 1947.88) rotate(170.99)"> </text><text class="cls-132" transform="translate(1145.49 1949.47) rotate(171.59)"> </text><text class="cls-132" transform="matrix(-0.99, 0.13, -0.13, -0.99, 1135.5, 1951.03)">O</text><text class="cls-132" transform="translate(1107.47 1954.67) rotate(174.63)">N</text><text class="cls-132" transform="translate(1080.65 1957.22) rotate(175.78)">E</text><text class="cls-132" transform="translate(1059.48 1958.74) rotate(176.71)"> </text><text class="cls-132" transform="translate(1049.39 1959.41) rotate(177.85)">O</text><text class="cls-132" transform="translate(1021.14 1960.46) rotate(179.5)">N</text><text class="cls-132" transform="translate(994.24 1960.66) rotate(-179.05)">E</text><text class="cls-132" transform="translate(972.98 1960.27) rotate(-178.11)"> </text><text class="cls-132" transform="translate(962.89 1960.03) rotate(-176.95)">O</text><text class="cls-132" transform="translate(934.66 1958.52) rotate(-175.29)">N</text><text class="cls-132" transform="matrix(-0.99, -0.11, 0.11, -0.99, 907.86, 1956.27)">E</text><text class="cls-132" transform="translate(886.74 1953.95) rotate(-172.88)"> </text><text class="cls-132" transform="matrix(-0.99, -0.13, 0.13, -0.99, 876.65, 1952.68)"> </text><text class="cls-132" transform="matrix(-0.99, -0.15, 0.15, -0.99, 866.61, 1951.32)"> </text><text class="cls-132" transform="matrix(-0.99, -0.16, 0.16, -0.99, 856.55, 1949.85)"> </text><text class="cls-132" transform="translate(846.52 1948.27) rotate(-170.42)"> </text><text class="cls-132" transform="matrix(-0.98, -0.18, 0.18, -0.98, 836.5, 1946.58)"> </text><text class="cls-132" transform="translate(826.51 1944.78) rotate(-169.19)"> </text><text class="cls-132" transform="translate(816.54 1942.88) rotate(-168.58)"> </text><text class="cls-132" transform="matrix(-0.98, -0.21, 0.21, -0.98, 806.57, 1940.86)"> </text><text class="cls-132" transform="translate(796.63 1938.74) rotate(-167.35)"> </text><text class="cls-132" transform="translate(786.71 1936.52) rotate(-166.73)"> </text><text class="cls-132" transform="matrix(-0.97, -0.24, 0.24, -0.97, 776.83, 1934.19)"> </text><text class="cls-132" transform="translate(766.98 1931.75) rotate(-165.5)"> </text><text class="cls-132" transform="translate(757.14 1929.21) rotate(-164.88)"> </text><text class="cls-132" transform="translate(747.34 1926.56) rotate(-164.27)"> </text><text class="cls-132" transform="translate(737.56 1923.81) rotate(-163.65)"> </text><text class="cls-132" transform="matrix(-0.96, -0.29, 0.29, -0.96, 727.82, 1920.95)"> </text><text class="cls-132" transform="matrix(-0.95, -0.3, 0.3, -0.95, 718.1, 1917.99)"> </text><text class="cls-132" transform="translate(708.41 1914.92) rotate(-161.81)"> </text><text class="cls-132" transform="translate(698.75 1911.74) rotate(-161.2)"> </text><text class="cls-132" transform="translate(689.15 1908.48) rotate(-160.58)"> </text><text class="cls-132" transform="translate(679.57 1905.1) rotate(-159.97)"> </text><text class="cls-132" transform="matrix(-0.94, -0.35, 0.35, -0.94, 670.01, 1901.62)"> </text><text class="cls-132" transform="translate(660.52 1898.04) rotate(-158.74)"> </text><text class="cls-132" transform="translate(651.04 1894.35) rotate(-158.13)"> </text><text class="cls-132" transform="translate(641.64 1890.58) rotate(-157.52)"> </text><text class="cls-132" transform="matrix(-0.92, -0.39, 0.39, -0.92, 632.24, 1886.69)"> </text><text class="cls-132" transform="translate(622.89 1882.71) rotate(-156.3)"> </text><text class="cls-132" transform="translate(613.6 1878.63) rotate(-155.68)"> </text><text class="cls-132" transform="translate(604.35 1874.45) rotate(-155.07)"> </text><text class="cls-132" transform="translate(595.13 1870.16) rotate(-154.46)"> </text><text class="cls-132" transform="matrix(-0.9, -0.44, 0.44, -0.9, 585.96, 1865.78)"> </text><text class="cls-132" transform="translate(576.84 1861.31) rotate(-153.24)"> </text><text class="cls-132" transform="translate(567.77 1856.73) rotate(-152.63)"> </text><text class="cls-132" transform="matrix(-0.88, -0.47, 0.47, -0.88, 558.74, 1852.06)"> </text><text class="cls-132" transform="translate(549.76 1847.29) rotate(-151.41)"> </text><text class="cls-132" transform="matrix(-0.87, -0.49, 0.49, -0.87, 540.86, 1842.44)"> </text><text class="cls-132" transform="matrix(-0.87, -0.5, 0.5, -0.87, 531.99, 1837.48)"> </text><text class="cls-132" transform="translate(523.17 1832.43) rotate(-149.59)"> </text><text class="cls-132" transform="translate(514.4 1827.28) rotate(-148.98)"> </text><text class="cls-132" transform="matrix(-0.85, -0.52, 0.52, -0.85, 505.7, 1822.05)"> </text><text class="cls-132" transform="matrix(-0.85, -0.53, 0.53, -0.85, 497.06, 1816.73)"> </text><text class="cls-132" transform="translate(488.47 1811.32) rotate(-147.15)"> </text><text class="cls-132" transform="matrix(-0.83, -0.55, 0.55, -0.83, 479.93, 1805.8)"> </text><text class="cls-132" transform="translate(471.45 1800.2) rotate(-145.94)"> </text><text class="cls-132" transform="translate(463.03 1794.51) rotate(-145.33)"> </text><text class="cls-132" transform="translate(454.67 1788.73) rotate(-144.72)"> </text><text class="cls-132" transform="translate(446.4 1782.87) rotate(-144.12)"> </text><text class="cls-132" transform="translate(438.15 1776.9) rotate(-143.51)"> </text><text class="cls-132" transform="matrix(-0.8, -0.6, 0.6, -0.8, 430, 1770.88)"> </text><text class="cls-132" transform="matrix(-0.79, -0.61, 0.61, -0.79, 421.88, 1764.74)"> </text><text class="cls-132" transform="matrix(-0.78, -0.62, 0.62, -0.78, 413.86, 1758.54)"> </text><text class="cls-132" transform="translate(405.87 1752.22) rotate(-141.08)"> </text><text class="cls-132" transform="translate(397.98 1745.86) rotate(-140.47)"> </text><text class="cls-132" transform="translate(390.13 1739.38) rotate(-139.87)"> </text><text class="cls-132" transform="matrix(-0.76, -0.65, 0.65, -0.76, 382.38, 1732.85)"> </text><text class="cls-132" transform="translate(374.67 1726.2) rotate(-138.65)"> </text><text class="cls-132" transform="translate(367.06 1719.51) rotate(-138.05)"> </text><text class="cls-132" transform="translate(359.5 1712.71) rotate(-137.44)"> </text><text class="cls-132" transform="translate(351.98 1705.94) rotate(-136.29)">O</text><text class="cls-132" transform="matrix(-0.7, -0.71, 0.71, -0.7, 331.55, 1686.39)">N</text><text class="cls-132" transform="matrix(-0.68, -0.73, 0.73, -0.68, 312.68, 1667.23)">E</text><text class="cls-132" transform="matrix(-0.67, -0.74, 0.74, -0.67, 298.17, 1651.71)"> </text><text class="cls-132" transform="matrix(-0.66, -0.75, 0.75, -0.66, 291.31, 1644.31)">O</text><text class="cls-132" transform="translate(272.73 1622.99) rotate(-129.45)">N</text><text class="cls-132" transform="translate(255.66 1602.2) rotate(-128.01)">E</text><text class="cls-132" transform="translate(242.61 1585.43) rotate(-127.06)"> </text><text class="cls-132" transform="matrix(-0.59, -0.81, 0.81, -0.59, 236.46, 1577.44)">O</text><text class="cls-132" transform="translate(219.88 1554.53) rotate(-124.25)">N</text><text class="cls-132" transform="translate(204.77 1532.27) rotate(-122.8)">E</text><text class="cls-132" transform="translate(193.3 1514.39) rotate(-121.85)"> </text><text class="cls-132" transform="translate(187.95 1505.77) rotate(-121.24)"> </text><text class="cls-132" transform="matrix(-0.51, -0.86, 0.86, -0.51, 182.68, 1497.09)"> </text><text class="cls-132" transform="matrix(-0.5, -0.87, 0.87, -0.5, 177.5, 1488.33)"> </text><text class="cls-132" transform="translate(172.42 1479.54) rotate(-119.39)"> </text><text class="cls-132" transform="translate(167.44 1470.7) rotate(-118.78)"> </text><text class="cls-132" transform="translate(162.54 1461.79) rotate(-118.16)"> </text><text class="cls-132" transform="matrix(-0.46, -0.89, 0.89, -0.46, 157.75, 1452.84)"> </text><text class="cls-132" transform="translate(153.05 1443.83) rotate(-116.93)"> </text><text class="cls-132" transform="translate(148.46 1434.78) rotate(-116.32)"> </text><text class="cls-132" transform="matrix(-0.43, -0.9, 0.9, -0.43, 143.95, 1425.67)"> </text><text class="cls-132" transform="translate(139.55 1416.53) rotate(-115.09)"> </text><text class="cls-132" transform="matrix(-0.41, -0.91, 0.91, -0.41, 135.24, 1407.33)"> </text><text class="cls-132" transform="translate(131.04 1398.09) rotate(-113.86)"> </text><text class="cls-132" transform="translate(126.93 1388.8) rotate(-113.24)"> </text><text class="cls-132" transform="matrix(-0.38, -0.92, 0.92, -0.38, 122.92, 1379.47)"> </text><text class="cls-132" transform="translate(119.01 1370.09) rotate(-112.01)"> </text><text class="cls-132" transform="matrix(-0.36, -0.93, 0.93, -0.36, 115.21, 1360.67)"> </text><text class="cls-132" transform="matrix(-0.35, -0.93, 0.93, -0.35, 111.5, 1351.21)"> </text><text class="cls-132" transform="translate(107.9 1341.73) rotate(-110.16)"> </text><text class="cls-132" transform="translate(104.4 1332.2) rotate(-109.55)"> </text><text class="cls-132" transform="matrix(-0.32, -0.95, 0.95, -0.32, 101, 1322.62)"> </text><text class="cls-132" transform="translate(97.7 1313.01) rotate(-108.32)"> </text><text class="cls-132" transform="translate(94.5 1303.35) rotate(-107.7)"> </text><text class="cls-132" transform="translate(91.42 1293.69) rotate(-107.09)"> </text><text class="cls-132" transform="matrix(-0.28, -0.96, 0.96, -0.28, 88.43, 1283.98)"> </text><text class="cls-132" transform="matrix(-0.27, -0.96, 0.96, -0.27, 85.55, 1274.24)"> </text><text class="cls-132" transform="translate(82.78 1264.48) rotate(-105.25)"> </text><text class="cls-132" transform="matrix(-0.25, -0.97, 0.97, -0.25, 80.1, 1254.67)"> </text><text class="cls-132" transform="matrix(-0.24, -0.97, 0.97, -0.24, 77.53, 1244.84)"> </text><text class="cls-132" transform="translate(75.08 1235) rotate(-103.42)"> </text><text class="cls-132" transform="translate(72.72 1225.12) rotate(-102.81)"> </text><text class="cls-132" transform="translate(70.46 1215.21) rotate(-102.2)"> </text><text class="cls-132" transform="matrix(-0.2, -0.98, 0.98, -0.2, 68.32, 1205.29)"> </text><text class="cls-132" transform="matrix(-0.19, -0.98, 0.98, -0.19, 66.28, 1195.33)"> </text><text class="cls-132" transform="translate(64.34 1185.37) rotate(-100.38)"> </text><text class="cls-132" transform="matrix(-0.17, -0.99, 0.99, -0.17, 62.51, 1175.38)"> </text><text class="cls-132" transform="translate(60.78 1165.34) rotate(-99.17)"> </text><text class="cls-132" transform="translate(59.17 1155.31) rotate(-98.56)"> </text><text class="cls-132" transform="translate(57.66 1145.29) rotate(-97.96)"> </text><text class="cls-132" transform="translate(56.26 1135.22) rotate(-97.22)">O</text><text class="cls-132" transform="translate(52.81 1107.2) rotate(-95.2)">N</text><text class="cls-132" transform="translate(50.4 1080.41) rotate(-93.78)">E</text><text class="cls-132" transform="translate(49.05 1059.2) rotate(-92.84)"> </text><text class="cls-132" transform="translate(48.46 1049.12) rotate(-91.7)">O</text><text class="cls-132" transform="matrix(0, -1, 1, 0, 47.63, 1020.85)">N</text><text class="cls-132" transform="translate(47.64 993.94) rotate(-88.6)">E</text><text class="cls-132" transform="translate(48.2 972.73) rotate(-87.66)"> </text><text class="cls-132" transform="matrix(0.06, -1, 1, 0.06, 48.52, 962.62)">O</text><text class="cls-132" transform="matrix(0.09, -1, 1, 0.09, 50.25, 934.41)">N</text><text class="cls-132" transform="translate(52.71 907.61) rotate(-83.38)">E</text><text class="cls-132" transform="translate(55.2 886.53) rotate(-82.43)"> </text><text class="cls-132" transform="translate(56.54 876.46) rotate(-81.82)"> </text><text class="cls-132" transform="translate(57.98 866.41) rotate(-81.2)"> </text><text class="cls-132" transform="matrix(0.16, -0.99, 0.99, 0.16, 59.54, 856.36)"> </text><text class="cls-132" transform="matrix(0.17, -0.98, 0.98, 0.17, 61.2, 846.33)"> </text><text class="cls-132" transform="translate(62.97 836.36) rotate(-79.35)"> </text><text class="cls-132" transform="translate(64.84 826.37) rotate(-78.74)"> </text><text class="cls-132" transform="translate(66.83 816.39) rotate(-78.12)"> </text><text class="cls-132" transform="matrix(0.22, -0.98, 0.98, 0.22, 68.92, 806.45)"> </text><text class="cls-132" transform="translate(71.12 796.54) rotate(-76.89)"> </text><text class="cls-132" transform="matrix(0.24, -0.97, 0.97, 0.24, 73.42, 786.65)"> </text></g></svg>